<svg width="175" height="59" viewBox="0 0 175 59" fill="none" xmlns="http://www.w3.org/2000/svg">
<path d="M37.7373 30.3824C37.7225 27.8414 38.8718 25.9263 41.1928 24.5143C39.8947 22.6513 37.9308 21.6267 35.3419 21.4293C32.8907 21.2355 30.2089 22.86 29.2269 22.86C28.1891 22.86 25.816 21.4963 23.9488 21.4963C20.0953 21.556 16 24.5739 16 30.714C16 32.5285 16.331 34.4026 16.9931 36.3325C17.8784 38.8736 21.0698 45.0994 24.3989 44.9988C26.1396 44.9578 27.3708 43.7618 29.6361 43.7618C31.8343 43.7618 32.9725 44.9988 34.9142 44.9988C38.273 44.9504 41.1594 39.2908 42 36.7424C37.4956 34.6149 37.7373 30.5128 37.7373 30.3824V30.3824ZM33.828 19.0187C35.7139 16.7757 35.5428 14.734 35.487 14C33.8206 14.0969 31.8938 15.1364 30.7966 16.4143C29.5877 17.7854 28.8773 19.4807 29.0298 21.392C30.83 21.5299 32.4741 20.6021 33.828 19.0187V19.0187Z" fill="white"/>
<path d="M57.416 19.5H55.6348L55.6465 18.5801H57.416C58.0254 18.5801 58.5332 18.4531 58.9395 18.1992C59.3457 17.9414 59.6504 17.582 59.8535 17.1211C60.0605 16.6562 60.1641 16.1133 60.1641 15.4922V14.9707C60.1641 14.4824 60.1055 14.0488 59.9883 13.6699C59.8711 13.2871 59.6992 12.9648 59.4727 12.7031C59.2461 12.4375 58.9688 12.2363 58.6406 12.0996C58.3164 11.9629 57.9434 11.8945 57.5215 11.8945H55.5996V10.9688H57.5215C58.0801 10.9688 58.5898 11.0625 59.0508 11.25C59.5117 11.4336 59.9082 11.7012 60.2402 12.0527C60.5762 12.4004 60.834 12.8223 61.0137 13.3184C61.1934 13.8105 61.2832 14.3652 61.2832 14.9824V15.4922C61.2832 16.1094 61.1934 16.666 61.0137 17.1621C60.834 17.6543 60.5742 18.0742 60.2344 18.4219C59.8984 18.7695 59.4922 19.0371 59.0156 19.2246C58.543 19.4082 58.0098 19.5 57.416 19.5ZM56.2383 10.9688V19.5H55.1074V10.9688H56.2383ZM62.5312 16.4004V16.2656C62.5312 15.8086 62.5977 15.3848 62.7305 14.9941C62.8633 14.5996 63.0547 14.2578 63.3047 13.9688C63.5547 13.6758 63.8574 13.4492 64.2129 13.2891C64.5684 13.125 64.9668 13.043 65.4082 13.043C65.8535 13.043 66.2539 13.125 66.6094 13.2891C66.9688 13.4492 67.2734 13.6758 67.5234 13.9688C67.7773 14.2578 67.9707 14.5996 68.1035 14.9941C68.2363 15.3848 68.3027 15.8086 68.3027 16.2656V16.4004C68.3027 16.8574 68.2363 17.2812 68.1035 17.6719C67.9707 18.0625 67.7773 18.4043 67.5234 18.6973C67.2734 18.9863 66.9707 19.2129 66.6152 19.377C66.2637 19.5371 65.8652 19.6172 65.4199 19.6172C64.9746 19.6172 64.5742 19.5371 64.2188 19.377C63.8633 19.2129 63.5586 18.9863 63.3047 18.6973C63.0547 18.4043 62.8633 18.0625 62.7305 17.6719C62.5977 17.2812 62.5312 16.8574 62.5312 16.4004ZM63.6152 16.2656V16.4004C63.6152 16.7168 63.6523 17.0156 63.7266 17.2969C63.8008 17.5742 63.9121 17.8203 64.0605 18.0352C64.2129 18.25 64.4023 18.4199 64.6289 18.5449C64.8555 18.666 65.1191 18.7266 65.4199 18.7266C65.7168 18.7266 65.9766 18.666 66.1992 18.5449C66.4258 18.4199 66.6133 18.25 66.7617 18.0352C66.9102 17.8203 67.0215 17.5742 67.0957 17.2969C67.1738 17.0156 67.2129 16.7168 67.2129 16.4004V16.2656C67.2129 15.9531 67.1738 15.6582 67.0957 15.3809C67.0215 15.0996 66.9082 14.8516 66.7559 14.6367C66.6074 14.418 66.4199 14.2461 66.1934 14.1211C65.9707 13.9961 65.709 13.9336 65.4082 13.9336C65.1113 13.9336 64.8496 13.9961 64.623 14.1211C64.4004 14.2461 64.2129 14.418 64.0605 14.6367C63.9121 14.8516 63.8008 15.0996 63.7266 15.3809C63.6523 15.6582 63.6152 15.9531 63.6152 16.2656ZM71.2676 18.375L72.8965 13.1602H73.6113L73.4707 14.1973L71.8125 19.5H71.1152L71.2676 18.375ZM70.1719 13.1602L71.5605 18.4336L71.6602 19.5H70.9277L69.0879 13.1602H70.1719ZM75.1699 18.3926L76.4941 13.1602H77.5723L75.7324 19.5H75.0059L75.1699 18.3926ZM73.7695 13.1602L75.3633 18.2871L75.5449 19.5H74.8535L73.1484 14.1855L73.0078 13.1602H73.7695ZM79.7695 14.5137V19.5H78.6855V13.1602H79.7109L79.7695 14.5137ZM79.5117 16.0898L79.0605 16.0723C79.0645 15.6387 79.1289 15.2383 79.2539 14.8711C79.3789 14.5 79.5547 14.1777 79.7812 13.9043C80.0078 13.6309 80.2773 13.4199 80.5898 13.2715C80.9062 13.1191 81.2559 13.043 81.6387 13.043C81.9512 13.043 82.2324 13.0859 82.4824 13.1719C82.7324 13.2539 82.9453 13.3867 83.1211 13.5703C83.3008 13.7539 83.4375 13.9922 83.5312 14.2852C83.625 14.5742 83.6719 14.9277 83.6719 15.3457V19.5H82.582V15.334C82.582 15.002 82.5332 14.7363 82.4355 14.5371C82.3379 14.334 82.1953 14.1875 82.0078 14.0977C81.8203 14.0039 81.5898 13.957 81.3164 13.957C81.0469 13.957 80.8008 14.0137 80.5781 14.127C80.3594 14.2402 80.1699 14.3965 80.0098 14.5957C79.8535 14.7949 79.7305 15.0234 79.6406 15.2812C79.5547 15.5352 79.5117 15.8047 79.5117 16.0898ZM86.4961 10.5V19.5H85.4062V10.5H86.4961ZM87.9492 16.4004V16.2656C87.9492 15.8086 88.0156 15.3848 88.1484 14.9941C88.2812 14.5996 88.4727 14.2578 88.7227 13.9688C88.9727 13.6758 89.2754 13.4492 89.6309 13.2891C89.9863 13.125 90.3848 13.043 90.8262 13.043C91.2715 13.043 91.6719 13.125 92.0273 13.2891C92.3867 13.4492 92.6914 13.6758 92.9414 13.9688C93.1953 14.2578 93.3887 14.5996 93.5215 14.9941C93.6543 15.3848 93.7207 15.8086 93.7207 16.2656V16.4004C93.7207 16.8574 93.6543 17.2812 93.5215 17.6719C93.3887 18.0625 93.1953 18.4043 92.9414 18.6973C92.6914 18.9863 92.3887 19.2129 92.0332 19.377C91.6816 19.5371 91.2832 19.6172 90.8379 19.6172C90.3926 19.6172 89.9922 19.5371 89.6367 19.377C89.2812 19.2129 88.9766 18.9863 88.7227 18.6973C88.4727 18.4043 88.2812 18.0625 88.1484 17.6719C88.0156 17.2812 87.9492 16.8574 87.9492 16.4004ZM89.0332 16.2656V16.4004C89.0332 16.7168 89.0703 17.0156 89.1445 17.2969C89.2188 17.5742 89.3301 17.8203 89.4785 18.0352C89.6309 18.25 89.8203 18.4199 90.0469 18.5449C90.2734 18.666 90.5371 18.7266 90.8379 18.7266C91.1348 18.7266 91.3945 18.666 91.6172 18.5449C91.8438 18.4199 92.0312 18.25 92.1797 18.0352C92.3281 17.8203 92.4395 17.5742 92.5137 17.2969C92.5918 17.0156 92.6309 16.7168 92.6309 16.4004V16.2656C92.6309 15.9531 92.5918 15.6582 92.5137 15.3809C92.4395 15.0996 92.3262 14.8516 92.1738 14.6367C92.0254 14.418 91.8379 14.2461 91.6113 14.1211C91.3887 13.9961 91.127 13.9336 90.8262 13.9336C90.5293 13.9336 90.2676 13.9961 90.041 14.1211C89.8184 14.2461 89.6309 14.418 89.4785 14.6367C89.3301 14.8516 89.2188 15.0996 89.1445 15.3809C89.0703 15.6582 89.0332 15.9531 89.0332 16.2656ZM98.8184 18.416V15.1523C98.8184 14.9023 98.7676 14.6855 98.666 14.502C98.5684 14.3145 98.4199 14.1699 98.2207 14.0684C98.0215 13.9668 97.7754 13.916 97.4824 13.916C97.209 13.916 96.9688 13.9629 96.7617 14.0566C96.5586 14.1504 96.3984 14.2734 96.2812 14.4258C96.168 14.5781 96.1113 14.7422 96.1113 14.918H95.0273C95.0273 14.6914 95.0859 14.4668 95.2031 14.2441C95.3203 14.0215 95.4883 13.8203 95.707 13.6406C95.9297 13.457 96.1953 13.3125 96.5039 13.207C96.8164 13.0977 97.1641 13.043 97.5469 13.043C98.0078 13.043 98.4141 13.1211 98.7656 13.2773C99.1211 13.4336 99.3984 13.6699 99.5977 13.9863C99.8008 14.2988 99.9023 14.6914 99.9023 15.1641V18.1172C99.9023 18.3281 99.9199 18.5527 99.9551 18.791C99.9941 19.0293 100.051 19.2344 100.125 19.4062V19.5H98.9941C98.9395 19.375 98.8965 19.209 98.8652 19.002C98.834 18.791 98.8184 18.5957 98.8184 18.416ZM99.0059 15.6562L99.0176 16.418H97.9219C97.6133 16.418 97.3379 16.4434 97.0957 16.4941C96.8535 16.541 96.6504 16.6133 96.4863 16.7109C96.3223 16.8086 96.1973 16.9316 96.1113 17.0801C96.0254 17.2246 95.9824 17.3945 95.9824 17.5898C95.9824 17.7891 96.0273 17.9707 96.1172 18.1348C96.207 18.2988 96.3418 18.4297 96.5215 18.5273C96.7051 18.6211 96.9297 18.668 97.1953 18.668C97.5273 18.668 97.8203 18.5977 98.0742 18.457C98.3281 18.3164 98.5293 18.1445 98.6777 17.9414C98.8301 17.7383 98.9121 17.541 98.9238 17.3496L99.3867 17.8711C99.3594 18.0352 99.2852 18.2168 99.1641 18.416C99.043 18.6152 98.8809 18.8066 98.6777 18.9902C98.4785 19.1699 98.2402 19.3203 97.9629 19.4414C97.6895 19.5586 97.3809 19.6172 97.0371 19.6172C96.6074 19.6172 96.2305 19.5332 95.9062 19.3652C95.5859 19.1973 95.3359 18.9727 95.1562 18.6914C94.9805 18.4062 94.8926 18.0879 94.8926 17.7363C94.8926 17.3965 94.959 17.0977 95.0918 16.8398C95.2246 16.5781 95.416 16.3613 95.666 16.1895C95.916 16.0137 96.2168 15.8809 96.5684 15.791C96.9199 15.7012 97.3125 15.6562 97.7461 15.6562H99.0059ZM105.604 18.2695V10.5H106.693V19.5H105.697L105.604 18.2695ZM101.338 16.4004V16.2773C101.338 15.793 101.396 15.3535 101.514 14.959C101.635 14.5605 101.805 14.2188 102.023 13.9336C102.246 13.6484 102.51 13.4297 102.814 13.2773C103.123 13.1211 103.467 13.043 103.846 13.043C104.244 13.043 104.592 13.1133 104.889 13.2539C105.189 13.3906 105.443 13.5918 105.65 13.8574C105.861 14.1191 106.027 14.4355 106.148 14.8066C106.27 15.1777 106.354 15.5977 106.4 16.0664V16.6055C106.357 17.0703 106.273 17.4883 106.148 17.8594C106.027 18.2305 105.861 18.5469 105.65 18.8086C105.443 19.0703 105.189 19.2715 104.889 19.4121C104.588 19.5488 104.236 19.6172 103.834 19.6172C103.463 19.6172 103.123 19.5371 102.814 19.377C102.51 19.2168 102.246 18.9922 102.023 18.7031C101.805 18.4141 101.635 18.0742 101.514 17.6836C101.396 17.2891 101.338 16.8613 101.338 16.4004ZM102.428 16.2773V16.4004C102.428 16.7168 102.459 17.0137 102.521 17.291C102.588 17.5684 102.689 17.8125 102.826 18.0234C102.963 18.2344 103.137 18.4004 103.348 18.5215C103.559 18.6387 103.811 18.6973 104.104 18.6973C104.463 18.6973 104.758 18.6211 104.988 18.4688C105.223 18.3164 105.41 18.1152 105.551 17.8652C105.691 17.6152 105.801 17.3438 105.879 17.0508V15.6387C105.832 15.4238 105.764 15.2168 105.674 15.0176C105.588 14.8145 105.475 14.6348 105.334 14.4785C105.197 14.3184 105.027 14.1914 104.824 14.0977C104.625 14.0039 104.389 13.957 104.115 13.957C103.818 13.957 103.562 14.0195 103.348 14.1445C103.137 14.2656 102.963 14.4336 102.826 14.6484C102.689 14.8594 102.588 15.1055 102.521 15.3867C102.459 15.6641 102.428 15.9609 102.428 16.2773ZM111.07 16.4004V16.2656C111.07 15.8086 111.137 15.3848 111.27 14.9941C111.402 14.5996 111.594 14.2578 111.844 13.9688C112.094 13.6758 112.396 13.4492 112.752 13.2891C113.107 13.125 113.506 13.043 113.947 13.043C114.393 13.043 114.793 13.125 115.148 13.2891C115.508 13.4492 115.812 13.6758 116.062 13.9688C116.316 14.2578 116.51 14.5996 116.643 14.9941C116.775 15.3848 116.842 15.8086 116.842 16.2656V16.4004C116.842 16.8574 116.775 17.2812 116.643 17.6719C116.51 18.0625 116.316 18.4043 116.062 18.6973C115.812 18.9863 115.51 19.2129 115.154 19.377C114.803 19.5371 114.404 19.6172 113.959 19.6172C113.514 19.6172 113.113 19.5371 112.758 19.377C112.402 19.2129 112.098 18.9863 111.844 18.6973C111.594 18.4043 111.402 18.0625 111.27 17.6719C111.137 17.2812 111.07 16.8574 111.07 16.4004ZM112.154 16.2656V16.4004C112.154 16.7168 112.191 17.0156 112.266 17.2969C112.34 17.5742 112.451 17.8203 112.6 18.0352C112.752 18.25 112.941 18.4199 113.168 18.5449C113.395 18.666 113.658 18.7266 113.959 18.7266C114.256 18.7266 114.516 18.666 114.738 18.5449C114.965 18.4199 115.152 18.25 115.301 18.0352C115.449 17.8203 115.561 17.5742 115.635 17.2969C115.713 17.0156 115.752 16.7168 115.752 16.4004V16.2656C115.752 15.9531 115.713 15.6582 115.635 15.3809C115.561 15.0996 115.447 14.8516 115.295 14.6367C115.146 14.418 114.959 14.2461 114.732 14.1211C114.51 13.9961 114.248 13.9336 113.947 13.9336C113.65 13.9336 113.389 13.9961 113.162 14.1211C112.939 14.2461 112.752 14.418 112.6 14.6367C112.451 14.8516 112.34 15.0996 112.266 15.3809C112.191 15.6582 112.154 15.9531 112.154 16.2656ZM119.285 14.5137V19.5H118.201V13.1602H119.227L119.285 14.5137ZM119.027 16.0898L118.576 16.0723C118.58 15.6387 118.645 15.2383 118.77 14.8711C118.895 14.5 119.07 14.1777 119.297 13.9043C119.523 13.6309 119.793 13.4199 120.105 13.2715C120.422 13.1191 120.771 13.043 121.154 13.043C121.467 13.043 121.748 13.0859 121.998 13.1719C122.248 13.2539 122.461 13.3867 122.637 13.5703C122.816 13.7539 122.953 13.9922 123.047 14.2852C123.141 14.5742 123.188 14.9277 123.188 15.3457V19.5H122.098V15.334C122.098 15.002 122.049 14.7363 121.951 14.5371C121.854 14.334 121.711 14.1875 121.523 14.0977C121.336 14.0039 121.105 13.957 120.832 13.957C120.562 13.957 120.316 14.0137 120.094 14.127C119.875 14.2402 119.686 14.3965 119.525 14.5957C119.369 14.7949 119.246 15.0234 119.156 15.2812C119.07 15.5352 119.027 15.8047 119.027 16.0898ZM130.465 13.1602V13.9922H127.037V13.1602H130.465ZM128.197 11.6191H129.281V17.9297C129.281 18.1445 129.314 18.3066 129.381 18.416C129.447 18.5254 129.533 18.5977 129.639 18.6328C129.744 18.668 129.857 18.6855 129.979 18.6855C130.068 18.6855 130.162 18.6777 130.26 18.6621C130.361 18.6426 130.438 18.627 130.488 18.6152L130.494 19.5C130.408 19.5273 130.295 19.5527 130.154 19.5762C130.018 19.6035 129.852 19.6172 129.656 19.6172C129.391 19.6172 129.146 19.5645 128.924 19.459C128.701 19.3535 128.523 19.1777 128.391 18.9316C128.262 18.6816 128.197 18.3457 128.197 17.9238V11.6191ZM132.82 10.5V19.5H131.736V10.5H132.82ZM132.562 16.0898L132.111 16.0723C132.115 15.6387 132.18 15.2383 132.305 14.8711C132.43 14.5 132.605 14.1777 132.832 13.9043C133.059 13.6309 133.328 13.4199 133.641 13.2715C133.957 13.1191 134.307 13.043 134.689 13.043C135.002 13.043 135.283 13.0859 135.533 13.1719C135.783 13.2539 135.996 13.3867 136.172 13.5703C136.352 13.7539 136.488 13.9922 136.582 14.2852C136.676 14.5742 136.723 14.9277 136.723 15.3457V19.5H135.633V15.334C135.633 15.002 135.584 14.7363 135.486 14.5371C135.389 14.334 135.246 14.1875 135.059 14.0977C134.871 14.0039 134.641 13.957 134.367 13.957C134.098 13.957 133.852 14.0137 133.629 14.127C133.41 14.2402 133.221 14.3965 133.061 14.5957C132.904 14.7949 132.781 15.0234 132.691 15.2812C132.605 15.5352 132.562 15.8047 132.562 16.0898ZM140.977 19.6172C140.535 19.6172 140.135 19.543 139.775 19.3945C139.42 19.2422 139.113 19.0293 138.855 18.7559C138.602 18.4824 138.406 18.1582 138.27 17.7832C138.133 17.4082 138.064 16.998 138.064 16.5527V16.3066C138.064 15.791 138.141 15.332 138.293 14.9297C138.445 14.5234 138.652 14.1797 138.914 13.8984C139.176 13.6172 139.473 13.4043 139.805 13.2598C140.137 13.1152 140.48 13.043 140.836 13.043C141.289 13.043 141.68 13.1211 142.008 13.2773C142.34 13.4336 142.611 13.6523 142.822 13.9336C143.033 14.2109 143.189 14.5391 143.291 14.918C143.393 15.293 143.443 15.7031 143.443 16.1484V16.6348H138.709V15.75H142.359V15.668C142.344 15.3867 142.285 15.1133 142.184 14.8477C142.086 14.582 141.93 14.3633 141.715 14.1914C141.5 14.0195 141.207 13.9336 140.836 13.9336C140.59 13.9336 140.363 13.9863 140.156 14.0918C139.949 14.1934 139.771 14.3457 139.623 14.5488C139.475 14.752 139.359 15 139.277 15.293C139.195 15.5859 139.154 15.9238 139.154 16.3066V16.5527C139.154 16.8535 139.195 17.1367 139.277 17.4023C139.363 17.6641 139.486 17.8945 139.646 18.0938C139.811 18.293 140.008 18.4492 140.238 18.5625C140.473 18.6758 140.738 18.7324 141.035 18.7324C141.418 18.7324 141.742 18.6543 142.008 18.498C142.273 18.3418 142.506 18.1328 142.705 17.8711L143.361 18.3926C143.225 18.5996 143.051 18.7969 142.84 18.9844C142.629 19.1719 142.369 19.3242 142.061 19.4414C141.756 19.5586 141.395 19.6172 140.977 19.6172Z" fill="white"/>
<path d="M62.4258 27.9492L56.7773 43.5H54.4688L60.9727 26.4375H62.4609L62.4258 27.9492ZM67.1602 43.5L61.5 27.9492L61.4648 26.4375H62.9531L69.4805 43.5H67.1602ZM66.8672 37.1836V39.0352H57.2812V37.1836H66.8672ZM73.6055 33.2578V48.375H71.4258V30.8203H73.418L73.6055 33.2578ZM82.1484 37.0547V37.3008C82.1484 38.2227 82.0391 39.0781 81.8203 39.8672C81.6016 40.6484 81.2812 41.3281 80.8594 41.9062C80.4453 42.4844 79.9336 42.9336 79.3242 43.2539C78.7148 43.5742 78.0156 43.7344 77.2266 43.7344C76.4219 43.7344 75.7109 43.6016 75.0938 43.3359C74.4766 43.0703 73.9531 42.6836 73.5234 42.1758C73.0938 41.668 72.75 41.0586 72.4922 40.3477C72.2422 39.6367 72.0703 38.8359 71.9766 37.9453V36.6328C72.0703 35.6953 72.2461 34.8555 72.5039 34.1133C72.7617 33.3711 73.1016 32.7383 73.5234 32.2148C73.9531 31.6836 74.4727 31.2812 75.082 31.0078C75.6914 30.7266 76.3945 30.5859 77.1914 30.5859C77.9883 30.5859 78.6953 30.7422 79.3125 31.0547C79.9297 31.3594 80.4492 31.7969 80.8711 32.3672C81.293 32.9375 81.6094 33.6211 81.8203 34.418C82.0391 35.207 82.1484 36.0859 82.1484 37.0547ZM79.9688 37.3008V37.0547C79.9688 36.4219 79.9023 35.8281 79.7695 35.2734C79.6367 34.7109 79.4297 34.2188 79.1484 33.7969C78.875 33.3672 78.5234 33.0312 78.0938 32.7891C77.6641 32.5391 77.1523 32.4141 76.5586 32.4141C76.0117 32.4141 75.5352 32.5078 75.1289 32.6953C74.7305 32.8828 74.3906 33.1367 74.1094 33.457C73.8281 33.7695 73.5977 34.1289 73.418 34.5352C73.2461 34.9336 73.1172 35.3477 73.0312 35.7773V38.8125C73.1875 39.3594 73.4062 39.875 73.6875 40.3594C73.9688 40.8359 74.3438 41.2227 74.8125 41.5195C75.2812 41.8086 75.8711 41.9531 76.582 41.9531C77.168 41.9531 77.6719 41.832 78.0938 41.5898C78.5234 41.3398 78.875 41 79.1484 40.5703C79.4297 40.1406 79.6367 39.6484 79.7695 39.0938C79.9023 38.5312 79.9688 37.9336 79.9688 37.3008ZM87.082 33.2578V48.375H84.9023V30.8203H86.8945L87.082 33.2578ZM95.625 37.0547V37.3008C95.625 38.2227 95.5156 39.0781 95.2969 39.8672C95.0781 40.6484 94.7578 41.3281 94.3359 41.9062C93.9219 42.4844 93.4102 42.9336 92.8008 43.2539C92.1914 43.5742 91.4922 43.7344 90.7031 43.7344C89.8984 43.7344 89.1875 43.6016 88.5703 43.3359C87.9531 43.0703 87.4297 42.6836 87 42.1758C86.5703 41.668 86.2266 41.0586 85.9688 40.3477C85.7188 39.6367 85.5469 38.8359 85.4531 37.9453V36.6328C85.5469 35.6953 85.7227 34.8555 85.9805 34.1133C86.2383 33.3711 86.5781 32.7383 87 32.2148C87.4297 31.6836 87.9492 31.2812 88.5586 31.0078C89.168 30.7266 89.8711 30.5859 90.668 30.5859C91.4648 30.5859 92.1719 30.7422 92.7891 31.0547C93.4062 31.3594 93.9258 31.7969 94.3477 32.3672C94.7695 32.9375 95.0859 33.6211 95.2969 34.418C95.5156 35.207 95.625 36.0859 95.625 37.0547ZM93.4453 37.3008V37.0547C93.4453 36.4219 93.3789 35.8281 93.2461 35.2734C93.1133 34.7109 92.9062 34.2188 92.625 33.7969C92.3516 33.3672 92 33.0312 91.5703 32.7891C91.1406 32.5391 90.6289 32.4141 90.0352 32.4141C89.4883 32.4141 89.0117 32.5078 88.6055 32.6953C88.207 32.8828 87.8672 33.1367 87.5859 33.457C87.3047 33.7695 87.0742 34.1289 86.8945 34.5352C86.7227 34.9336 86.5938 35.3477 86.5078 35.7773V38.8125C86.6641 39.3594 86.8828 39.875 87.1641 40.3594C87.4453 40.8359 87.8203 41.2227 88.2891 41.5195C88.7578 41.8086 89.3477 41.9531 90.0586 41.9531C90.6445 41.9531 91.1484 41.832 91.5703 41.5898C92 41.3398 92.3516 41 92.625 40.5703C92.9062 40.1406 93.1133 39.6484 93.2461 39.0938C93.3789 38.5312 93.4453 37.9336 93.4453 37.3008ZM113.766 39.1875C113.766 38.7891 113.703 38.4375 113.578 38.1328C113.461 37.8203 113.25 37.5391 112.945 37.2891C112.648 37.0391 112.234 36.8008 111.703 36.5742C111.18 36.3477 110.516 36.1172 109.711 35.8828C108.867 35.6328 108.105 35.3555 107.426 35.0508C106.746 34.7383 106.164 34.3828 105.68 33.9844C105.195 33.5859 104.824 33.1289 104.566 32.6133C104.309 32.0977 104.18 31.5078 104.18 30.8438C104.18 30.1797 104.316 29.5664 104.59 29.0039C104.863 28.4414 105.254 27.9531 105.762 27.5391C106.277 27.1172 106.891 26.7891 107.602 26.5547C108.312 26.3203 109.105 26.2031 109.98 26.2031C111.262 26.2031 112.348 26.4492 113.238 26.9414C114.137 27.4258 114.82 28.0625 115.289 28.8516C115.758 29.6328 115.992 30.4688 115.992 31.3594H113.742C113.742 30.7188 113.605 30.1523 113.332 29.6602C113.059 29.1602 112.645 28.7695 112.09 28.4883C111.535 28.1992 110.832 28.0547 109.98 28.0547C109.176 28.0547 108.512 28.1758 107.988 28.418C107.465 28.6602 107.074 28.9883 106.816 29.4023C106.566 29.8164 106.441 30.2891 106.441 30.8203C106.441 31.1797 106.516 31.5078 106.664 31.8047C106.82 32.0938 107.059 32.3633 107.379 32.6133C107.707 32.8633 108.121 33.0938 108.621 33.3047C109.129 33.5156 109.734 33.7188 110.438 33.9141C111.406 34.1875 112.242 34.4922 112.945 34.8281C113.648 35.1641 114.227 35.543 114.68 35.9648C115.141 36.3789 115.48 36.8516 115.699 37.3828C115.926 37.9062 116.039 38.5 116.039 39.1641C116.039 39.8594 115.898 40.4883 115.617 41.0508C115.336 41.6133 114.934 42.0938 114.41 42.4922C113.887 42.8906 113.258 43.1992 112.523 43.418C111.797 43.6289 110.984 43.7344 110.086 43.7344C109.297 43.7344 108.52 43.625 107.754 43.4062C106.996 43.1875 106.305 42.8594 105.68 42.4219C105.062 41.9844 104.566 41.4453 104.191 40.8047C103.824 40.1562 103.641 39.4062 103.641 38.5547H105.891C105.891 39.1406 106.004 39.6445 106.23 40.0664C106.457 40.4805 106.766 40.8242 107.156 41.0977C107.555 41.3711 108.004 41.5742 108.504 41.707C109.012 41.832 109.539 41.8945 110.086 41.8945C110.875 41.8945 111.543 41.7852 112.09 41.5664C112.637 41.3477 113.051 41.0352 113.332 40.6289C113.621 40.2227 113.766 39.7422 113.766 39.1875ZM123.902 30.8203V32.4844H117.047V30.8203H123.902ZM119.367 27.7383H121.535V40.3594C121.535 40.7891 121.602 41.1133 121.734 41.332C121.867 41.5508 122.039 41.6953 122.25 41.7656C122.461 41.8359 122.688 41.8711 122.93 41.8711C123.109 41.8711 123.297 41.8555 123.492 41.8242C123.695 41.7852 123.848 41.7539 123.949 41.7305L123.961 43.5C123.789 43.5547 123.562 43.6055 123.281 43.6523C123.008 43.707 122.676 43.7344 122.285 43.7344C121.754 43.7344 121.266 43.6289 120.82 43.418C120.375 43.207 120.02 42.8555 119.754 42.3633C119.496 41.8633 119.367 41.1914 119.367 40.3477V27.7383ZM125.637 37.3008V37.0312C125.637 36.1172 125.77 35.2695 126.035 34.4883C126.301 33.6992 126.684 33.0156 127.184 32.4375C127.684 31.8516 128.289 31.3984 129 31.0781C129.711 30.75 130.508 30.5859 131.391 30.5859C132.281 30.5859 133.082 30.75 133.793 31.0781C134.512 31.3984 135.121 31.8516 135.621 32.4375C136.129 33.0156 136.516 33.6992 136.781 34.4883C137.047 35.2695 137.18 36.1172 137.18 37.0312V37.3008C137.18 38.2148 137.047 39.0625 136.781 39.8438C136.516 40.625 136.129 41.3086 135.621 41.8945C135.121 42.4727 134.516 42.9258 133.805 43.2539C133.102 43.5742 132.305 43.7344 131.414 43.7344C130.523 43.7344 129.723 43.5742 129.012 43.2539C128.301 42.9258 127.691 42.4727 127.184 41.8945C126.684 41.3086 126.301 40.625 126.035 39.8438C125.77 39.0625 125.637 38.2148 125.637 37.3008ZM127.805 37.0312V37.3008C127.805 37.9336 127.879 38.5312 128.027 39.0938C128.176 39.6484 128.398 40.1406 128.695 40.5703C129 41 129.379 41.3398 129.832 41.5898C130.285 41.832 130.812 41.9531 131.414 41.9531C132.008 41.9531 132.527 41.832 132.973 41.5898C133.426 41.3398 133.801 41 134.098 40.5703C134.395 40.1406 134.617 39.6484 134.766 39.0938C134.922 38.5312 135 37.9336 135 37.3008V37.0312C135 36.4062 134.922 35.8164 134.766 35.2617C134.617 34.6992 134.391 34.2031 134.086 33.7734C133.789 33.3359 133.414 32.9922 132.961 32.7422C132.516 32.4922 131.992 32.3672 131.391 32.3672C130.797 32.3672 130.273 32.4922 129.82 32.7422C129.375 32.9922 129 33.3359 128.695 33.7734C128.398 34.2031 128.176 34.6992 128.027 35.2617C127.879 35.8164 127.805 36.4062 127.805 37.0312ZM142.066 32.8125V43.5H139.898V30.8203H142.008L142.066 32.8125ZM146.027 30.75L146.016 32.7656C145.836 32.7266 145.664 32.7031 145.5 32.6953C145.344 32.6797 145.164 32.6719 144.961 32.6719C144.461 32.6719 144.02 32.75 143.637 32.9062C143.254 33.0625 142.93 33.2812 142.664 33.5625C142.398 33.8438 142.188 34.1797 142.031 34.5703C141.883 34.9531 141.785 35.375 141.738 35.8359L141.129 36.1875C141.129 35.4219 141.203 34.7031 141.352 34.0312C141.508 33.3594 141.746 32.7656 142.066 32.25C142.387 31.7266 142.793 31.3203 143.285 31.0312C143.785 30.7344 144.379 30.5859 145.066 30.5859C145.223 30.5859 145.402 30.6055 145.605 30.6445C145.809 30.6758 145.949 30.7109 146.027 30.75ZM153.059 43.7344C152.176 43.7344 151.375 43.5859 150.656 43.2891C149.945 42.9844 149.332 42.5586 148.816 42.0117C148.309 41.4648 147.918 40.8164 147.645 40.0664C147.371 39.3164 147.234 38.4961 147.234 37.6055V37.1133C147.234 36.082 147.387 35.1641 147.691 34.3594C147.996 33.5469 148.41 32.8594 148.934 32.2969C149.457 31.7344 150.051 31.3086 150.715 31.0195C151.379 30.7305 152.066 30.5859 152.777 30.5859C153.684 30.5859 154.465 30.7422 155.121 31.0547C155.785 31.3672 156.328 31.8047 156.75 32.3672C157.172 32.9219 157.484 33.5781 157.688 34.3359C157.891 35.0859 157.992 35.9062 157.992 36.7969V37.7695H148.523V36H155.824V35.8359C155.793 35.2734 155.676 34.7266 155.473 34.1953C155.277 33.6641 154.965 33.2266 154.535 32.8828C154.105 32.5391 153.52 32.3672 152.777 32.3672C152.285 32.3672 151.832 32.4727 151.418 32.6836C151.004 32.8867 150.648 33.1914 150.352 33.5977C150.055 34.0039 149.824 34.5 149.66 35.0859C149.496 35.6719 149.414 36.3477 149.414 37.1133V37.6055C149.414 38.207 149.496 38.7734 149.66 39.3047C149.832 39.8281 150.078 40.2891 150.398 40.6875C150.727 41.0859 151.121 41.3984 151.582 41.625C152.051 41.8516 152.582 41.9648 153.176 41.9648C153.941 41.9648 154.59 41.8086 155.121 41.4961C155.652 41.1836 156.117 40.7656 156.516 40.2422L157.828 41.2852C157.555 41.6992 157.207 42.0938 156.785 42.4688C156.363 42.8438 155.844 43.1484 155.227 43.3828C154.617 43.6172 153.895 43.7344 153.059 43.7344Z" fill="white"/>
</svg>
