<svg width="32" height="32" viewBox="0 0 32 32" fill="none" xmlns="http://www.w3.org/2000/svg">
<path d="M23.3268 23.3094L22.8268 24.1755L23.3268 23.3094ZM26.0589 22.5774L25.1928 22.0774L26.0589 22.5774ZM26.7255 21.4227L25.8595 20.9227L25.8595 20.9227L26.7255 21.4227ZM25.9935 18.6906L25.4935 19.5567V19.5567L25.9935 18.6906ZM25.9935 13.3094L26.4935 14.1755L25.9935 13.3094ZM26.7255 10.5774L27.5916 10.0774V10.0774L26.7255 10.5774ZM26.0589 9.42268L25.1928 9.92268L26.0589 9.42268ZM23.3268 8.69063L23.8268 9.55666L23.3268 8.69063ZM8.67298 8.69063L9.17298 7.82461L9.17298 7.82461L8.67298 8.69063ZM5.94093 9.42268L5.07491 8.92268H5.07491L5.94093 9.42268ZM5.27426 10.5774L4.40824 10.0774H4.40824L5.27426 10.5774ZM6.00631 13.3094L5.50631 14.1755L5.50631 14.1755L6.00631 13.3094ZM6.00632 18.6906L6.50632 19.5567H6.50632L6.00632 18.6906ZM5.27426 21.4227L6.14029 20.9227L5.27426 21.4227ZM5.94093 22.5774L5.07491 23.0774H5.07491L5.94093 22.5774ZM8.67298 23.3094L9.17298 24.1755L8.67298 23.3094ZM12.639 24.3514L12.2653 25.279L12.639 24.3514ZM9.2508 22.9758L9.7508 23.8419L9.2508 22.9758ZM10.4497 23.0853L11.0669 22.2985L10.4497 23.0853ZM10.4497 8.91472L9.83249 8.12792L10.4497 8.91472ZM6.58313 13.6425L6.08313 14.5085L6.58313 13.6425ZM22.7492 9.02414L23.2492 9.89017L22.7492 9.02414ZM21.5502 8.91466L20.933 9.70147L21.5502 8.91466ZM24.9117 14.7343L23.9215 14.8737L24.9117 14.7343ZM25.4169 13.6424L25.9169 14.5084L25.4169 13.6424ZM25.4168 18.3577L25.9168 17.4917L25.4168 18.3577ZM21.5502 23.0854L22.1674 23.8722L21.5502 23.0854ZM22.7491 22.9759L23.2491 22.1099L22.7491 22.9759ZM19.3609 24.3515L18.9873 23.4239L19.3609 24.3515ZM15.3333 27C14.781 27 14.3333 26.5523 14.3333 26H12.3333C12.3333 27.6569 13.6764 29 15.3333 29V27ZM16.6666 27H15.3333V29H16.6666V27ZM17.6666 26C17.6666 26.5523 17.2189 27 16.6666 27V29C18.3235 29 19.6666 27.6569 19.6666 26H17.6666ZM17.6666 25.3355V26H19.6666V25.3355H17.6666ZM20.933 22.2986C20.3446 22.7601 19.6905 23.1407 18.9873 23.4239L19.7346 25.2791C20.6149 24.9244 21.4327 24.4485 22.1674 23.8722L20.933 22.2986ZM23.8268 22.4434L23.2491 22.1099L22.2491 23.8419L22.8268 24.1755L23.8268 22.4434ZM25.1928 22.0774C24.9167 22.5557 24.3051 22.7196 23.8268 22.4434L22.8268 24.1755C24.2617 25.0039 26.0965 24.5123 26.9249 23.0774L25.1928 22.0774ZM25.8595 20.9227L25.1928 22.0774L26.9249 23.0774L27.5916 21.9227L25.8595 20.9227ZM25.4935 19.5567C25.9718 19.8328 26.1357 20.4444 25.8595 20.9227L27.5916 21.9227C28.42 20.4878 27.9284 18.653 26.4935 17.8246L25.4935 19.5567ZM24.9168 19.2237L25.4935 19.5567L26.4935 17.8246L25.9168 17.4917L24.9168 19.2237ZM24 16C24 16.3828 23.9732 16.7588 23.9215 17.1263L25.9019 17.4051C25.9666 16.9455 26 16.4764 26 16H24ZM23.9215 14.8737C23.9732 15.2412 24 15.6172 24 16H26C26 15.5237 25.9666 15.0545 25.9019 14.595L23.9215 14.8737ZM25.4935 12.4434L24.9169 12.7763L25.9169 14.5084L26.4935 14.1755L25.4935 12.4434ZM25.8595 11.0774C26.1357 11.5557 25.9718 12.1673 25.4935 12.4434L26.4935 14.1755C27.9284 13.347 28.42 11.5123 27.5916 10.0774L25.8595 11.0774ZM25.1928 9.92268L25.8595 11.0774L27.5916 10.0774L26.9249 8.92268L25.1928 9.92268ZM23.8268 9.55666C24.3051 9.28052 24.9167 9.44439 25.1928 9.92268L26.9249 8.92268C26.0965 7.48781 24.2617 6.99618 22.8268 7.82461L23.8268 9.55666ZM23.2492 9.89017L23.8268 9.55666L22.8268 7.82461L22.2492 8.15812L23.2492 9.89017ZM18.9873 8.57609C19.6905 8.85935 20.3446 9.23992 20.933 9.70147L22.1674 8.12786C21.4328 7.55157 20.6149 7.07558 19.7346 6.72094L18.9873 8.57609ZM17.6666 6V6.6645H19.6666V6H17.6666ZM16.6666 5C17.2189 5 17.6666 5.44772 17.6666 6H19.6666C19.6666 4.34315 18.3235 3 16.6666 3V5ZM15.3333 5H16.6666V3H15.3333V5ZM14.3333 6C14.3333 5.44772 14.781 5 15.3333 5V3C13.6764 3 12.3333 4.34314 12.3333 6H14.3333ZM14.3333 6.66456V6H12.3333V6.66456H14.3333ZM11.0669 9.70152C11.6553 9.23997 12.3094 8.8594 13.0126 8.57614L12.2653 6.721C11.3849 7.07564 10.5671 7.55163 9.83249 8.12792L11.0669 9.70152ZM8.17298 9.55666L8.75075 9.89023L9.75075 8.15818L9.17298 7.82461L8.17298 9.55666ZM6.80696 9.92268C7.0831 9.44439 7.69469 9.28052 8.17298 9.55666L9.17298 7.82461C7.7381 6.99618 5.90333 7.48781 5.07491 8.92268L6.80696 9.92268ZM6.14029 11.0774L6.80696 9.92268L5.07491 8.92268L4.40824 10.0774L6.14029 11.0774ZM6.50632 12.4434C6.02802 12.1673 5.86415 11.5557 6.14029 11.0774L4.40824 10.0774C3.57981 11.5123 4.07144 13.347 5.50631 14.1755L6.50632 12.4434ZM7.08313 12.7764L6.50631 12.4434L5.50631 14.1755L6.08313 14.5085L7.08313 12.7764ZM8 16C8 15.6172 8.02681 15.2413 8.07853 14.8738L6.09804 14.5951C6.03337 15.0546 6 15.5237 6 16H8ZM8.07853 17.1263C8.02681 16.7588 8 16.3828 8 16H6C6 16.4763 6.03338 16.9454 6.09805 17.405L8.07853 17.1263ZM6.50632 19.5567L7.08314 19.2236L6.08314 17.4916L5.50632 17.8246L6.50632 19.5567ZM6.14029 20.9227C5.86415 20.4444 6.02802 19.8328 6.50632 19.5567L5.50632 17.8246C4.07144 18.653 3.57981 20.4878 4.40824 21.9227L6.14029 20.9227ZM6.80696 22.0774L6.14029 20.9227L4.40824 21.9227L5.07491 23.0774L6.80696 22.0774ZM8.17298 22.4434C7.69469 22.7196 7.0831 22.5557 6.80696 22.0774L5.07491 23.0774C5.90333 24.5123 7.7381 25.0039 9.17298 24.1755L8.17298 22.4434ZM8.7508 22.1098L8.17298 22.4434L9.17298 24.1755L9.7508 23.8419L8.7508 22.1098ZM13.0126 23.4239C12.3095 23.1406 11.6553 22.76 11.0669 22.2985L9.83254 23.8721C10.5672 24.4484 11.385 24.9244 12.2653 25.279L13.0126 23.4239ZM14.3333 26V25.3354H12.3333V26H14.3333ZM12.2653 25.279C12.296 25.2914 12.3164 25.31 12.3266 25.3242C12.3313 25.3308 12.3329 25.3349 12.3333 25.336C12.3334 25.3365 12.3334 25.3366 12.3333 25.3362C12.3333 25.336 12.3333 25.3359 12.3333 25.3357C12.3333 25.3355 12.3333 25.3354 12.3333 25.3354H14.3333C14.3333 24.4429 13.7528 23.722 13.0126 23.4239L12.2653 25.279ZM9.7508 23.8419C9.75083 23.8418 9.75075 23.8419 9.7506 23.842C9.75044 23.842 9.75028 23.8421 9.75012 23.8422C9.74977 23.8423 9.74978 23.8423 9.75033 23.8421C9.75139 23.8419 9.75574 23.8412 9.76364 23.842C9.78086 23.8437 9.80686 23.852 9.83254 23.8721L11.0669 22.2985C10.4384 21.8054 9.52355 21.6637 8.7508 22.1098L9.7508 23.8419ZM6.09805 17.405C6.10263 17.4375 6.09671 17.4644 6.08953 17.4803C6.08623 17.4876 6.08341 17.491 6.08267 17.4918C6.0823 17.4923 6.08225 17.4923 6.08254 17.492C6.08266 17.4919 6.08281 17.4918 6.08295 17.4917C6.08309 17.4916 6.08316 17.4916 6.08314 17.4916L7.08314 19.2236C7.85522 18.7779 8.18968 17.916 8.07853 17.1263L6.09805 17.405ZM9.83249 8.12792C9.80681 8.14807 9.78081 8.15632 9.76359 8.15805C9.75569 8.15884 9.75134 8.15812 9.75028 8.1579C9.74973 8.15779 9.74972 8.15775 9.75007 8.15788C9.75023 8.15794 9.75039 8.15801 9.75055 8.15808C9.7507 8.15815 9.75078 8.1582 9.75075 8.15818L8.75075 9.89023C9.52351 10.3364 10.4383 10.1946 11.0669 9.70152L9.83249 8.12792ZM6.08313 14.5085C6.08315 14.5085 6.08308 14.5085 6.08294 14.5084C6.0828 14.5083 6.08265 14.5082 6.08253 14.508C6.08224 14.5078 6.08229 14.5078 6.08266 14.5082C6.0834 14.5091 6.08622 14.5125 6.08952 14.5198C6.0967 14.5357 6.10262 14.5625 6.09804 14.5951L8.07853 14.8738C8.18967 14.0841 7.85521 13.2222 7.08313 12.7764L6.08313 14.5085ZM19.7346 6.72094C19.7039 6.70859 19.6835 6.68995 19.6732 6.67571C19.6685 6.66918 19.667 6.66499 19.6666 6.66394C19.6664 6.6634 19.6665 6.66337 19.6665 6.66374C19.6665 6.66391 19.6666 6.66409 19.6666 6.66426C19.6666 6.66444 19.6666 6.66453 19.6666 6.6645H17.6666C17.6666 7.55709 18.2471 8.27793 18.9873 8.57609L19.7346 6.72094ZM22.2492 8.15812C22.2491 8.15813 22.2492 8.15809 22.2494 8.15802C22.2495 8.15794 22.2497 8.15787 22.2498 8.15781C22.2502 8.15768 22.2502 8.15772 22.2496 8.15784C22.2486 8.15805 22.2442 8.15877 22.2363 8.15798C22.2191 8.15626 22.1931 8.148 22.1674 8.12786L20.933 9.70147C21.5616 10.1945 22.4764 10.3363 23.2492 9.89017L22.2492 8.15812ZM12.3333 6.66456C12.3333 6.66458 12.3333 6.66449 12.3333 6.66432C12.3333 6.66414 12.3333 6.66396 12.3333 6.6638C12.3334 6.66342 12.3334 6.66346 12.3333 6.664C12.3329 6.66505 12.3313 6.66923 12.3266 6.67577C12.3164 6.69001 12.296 6.70864 12.2653 6.721L13.0126 8.57614C13.7528 8.27797 14.3333 7.55713 14.3333 6.66456H12.3333ZM25.9019 14.595C25.8974 14.5624 25.9033 14.5356 25.9105 14.5197C25.9138 14.5124 25.9166 14.509 25.9173 14.5081C25.9177 14.5077 25.9177 14.5077 25.9175 14.5079C25.9173 14.508 25.9172 14.5082 25.917 14.5083C25.9169 14.5084 25.9168 14.5084 25.9169 14.5084L24.9169 12.7763C24.1448 13.2221 23.8103 14.084 23.9215 14.8737L25.9019 14.595ZM25.9168 17.4917C25.9168 17.4917 25.9169 17.4917 25.917 17.4918C25.9172 17.4919 25.9173 17.492 25.9174 17.4921C25.9177 17.4924 25.9177 17.4924 25.9173 17.4919C25.9166 17.4911 25.9138 17.4877 25.9105 17.4804C25.9033 17.4645 25.8974 17.4376 25.9019 17.4051L23.9215 17.1263C23.8103 17.9161 24.1448 18.778 24.9168 19.2237L25.9168 17.4917ZM22.1674 23.8722C22.1931 23.852 22.2191 23.8438 22.2363 23.8421C22.2442 23.8413 22.2485 23.842 22.2496 23.8422C22.2501 23.8423 22.2501 23.8424 22.2498 23.8422C22.2496 23.8422 22.2495 23.8421 22.2493 23.842C22.2492 23.8419 22.2491 23.8419 22.2491 23.8419L23.2491 22.1099C22.4764 21.6637 21.5616 21.8055 20.933 22.2986L22.1674 23.8722ZM19.6666 25.3355C19.6666 25.3355 19.6666 25.3356 19.6666 25.3357C19.6666 25.3359 19.6665 25.3361 19.6665 25.3363C19.6665 25.3366 19.6664 25.3366 19.6666 25.3361C19.667 25.335 19.6685 25.3308 19.6732 25.3243C19.6835 25.31 19.7039 25.2914 19.7346 25.2791L18.9873 23.4239C18.2471 23.7221 17.6666 24.4429 17.6666 25.3355H19.6666Z" fill="white"/>
<circle cx="16" cy="16" r="4" fill="#30CC6E"/>
</svg>
