<svg width="32" height="33" viewBox="0 0 32 33" fill="none" xmlns="http://www.w3.org/2000/svg">
<path d="M25.0621 26.2321L24.5621 27.0981L24.5621 27.0981L25.0621 26.2321ZM27.7942 25.5L26.9282 25H26.9282L27.7942 25.5ZM27.0621 22.768L27.5621 21.9019L27.0621 22.768ZM27.0621 19.2321L27.5621 20.0981L27.0621 19.2321ZM27.7942 16.5L26.9282 17L26.9282 17L27.7942 16.5ZM25.0621 15.768L24.5621 14.9019L25.0621 15.768ZM14.9378 15.768L15.4378 14.9019L14.9378 15.768ZM12.2057 16.5L13.0717 17H13.0717L12.2057 16.5ZM12.9378 19.2321L13.4378 18.3661H13.4378L12.9378 19.2321ZM12.9378 22.768L12.4378 21.9019H12.4378L12.9378 22.768ZM12.2057 25.5L13.0717 25L12.2057 25.5ZM14.9378 26.2321L15.4378 27.0981L15.4378 27.0981L14.9378 26.2321ZM13.4883 19.5499L12.9883 20.416L13.4883 19.5499ZM14.0128 20.6036L13.0149 20.5385L14.0128 20.6036ZM16.6641 16.0121L17.2208 16.8428L16.6641 16.0121ZM15.4882 16.0857L14.9882 16.9518L15.4882 16.0857ZM25.9871 20.6036L26.9849 20.5385L25.9871 20.6036ZM26.5116 19.5499L27.0116 20.416L26.5116 19.5499ZM22.6512 26.3839L22.2087 25.4872L22.6512 26.3839ZM24.5117 16.0857L24.0117 15.2197L24.5117 16.0857ZM23.3358 16.0121L22.7791 16.8428L23.3358 16.0121ZM22.6512 15.6161L23.0937 14.7193L22.6512 15.6161ZM23.3358 25.988L22.7791 25.1572L23.3358 25.988ZM24.5117 25.9143L25.0117 25.0483L24.5117 25.9143ZM15.4882 25.9143L14.9882 25.0483L15.4882 25.9143ZM16.6641 25.988L17.2208 25.1572L16.6641 25.988ZM26.5116 22.4501L26.0116 23.3161L26.5116 22.4501ZM25.987 21.3965L24.9892 21.3314L25.987 21.3965ZM20 29C19.4477 29 19 28.5523 19 28H17C17 29.6569 18.3431 31 20 31V29ZM21 28C21 28.5523 20.5523 29 20 29V31C21.6568 31 23 29.6569 23 28H21ZM21 27.3657V28H23V27.3657H21ZM22.7791 25.1572C22.597 25.2793 22.4065 25.3896 22.2087 25.4872L23.0937 27.2807C23.3709 27.144 23.6376 26.9894 23.8924 26.8187L22.7791 25.1572ZM25.5621 25.3661L25.0117 25.0483L24.0117 26.7803L24.5621 27.0981L25.5621 25.3661ZM26.9282 25C26.652 25.4783 26.0404 25.6422 25.5621 25.3661L24.5621 27.0981C25.997 27.9265 27.8318 27.4349 28.6602 26L26.9282 25ZM26.5621 23.634C27.0404 23.9101 27.2043 24.5217 26.9282 25L28.6602 26C29.4886 24.5651 28.997 22.7304 27.5621 21.9019L26.5621 23.634ZM26.0116 23.3161L26.5621 23.634L27.5621 21.9019L27.0116 21.5841L26.0116 23.3161ZM24.9999 21C24.9999 21.1115 24.9963 21.222 24.9892 21.3314L26.9849 21.4616C26.9949 21.3089 26.9999 21.1549 26.9999 21H24.9999ZM24.9892 20.6687C24.9963 20.7781 24.9999 20.8885 24.9999 21H26.9999C26.9999 20.8451 26.9949 20.6912 26.9849 20.5385L24.9892 20.6687ZM26.5621 18.3661L26.0116 18.6839L27.0116 20.416L27.5621 20.0981L26.5621 18.3661ZM26.9282 17C27.2043 17.4783 27.0404 18.0899 26.5621 18.3661L27.5621 20.0981C28.997 19.2697 29.4886 17.4349 28.6602 16L26.9282 17ZM25.5621 16.634C26.0404 16.3579 26.652 16.5217 26.9282 17L28.6602 16C27.8318 14.5651 25.997 14.0735 24.5621 14.9019L25.5621 16.634ZM25.0117 16.9518L25.5621 16.634L24.5621 14.9019L24.0117 15.2197L25.0117 16.9518ZM22.2087 16.5128C22.4065 16.6104 22.597 16.7207 22.7791 16.8428L23.8925 15.1813C23.6377 15.0106 23.3709 14.856 23.0937 14.7193L22.2087 16.5128ZM21 14V14.6343H23V14H21ZM20 13C20.5523 13 21 13.4477 21 14H23C23 12.3431 21.6568 11 20 11V13ZM19 14C19 13.4477 19.4477 13 20 13V11C18.3431 11 17 12.3431 17 14H19ZM19 14.6342V14H17V14.6342H19ZM17.2208 16.8428C17.4029 16.7207 17.5934 16.6104 17.7912 16.5128L16.9063 14.7192C16.629 14.856 16.3622 15.0106 16.1074 15.1813L17.2208 16.8428ZM14.4378 16.634L14.9882 16.9518L15.9882 15.2197L15.4378 14.9019L14.4378 16.634ZM13.0717 17C13.3479 16.5217 13.9595 16.3579 14.4378 16.634L15.4378 14.9019C14.0029 14.0735 12.1681 14.5651 11.3397 16L13.0717 17ZM13.4378 18.3661C12.9595 18.0899 12.7956 17.4783 13.0717 17L11.3397 16C10.5113 17.4349 11.0029 19.2697 12.4378 20.0981L13.4378 18.3661ZM13.9883 18.6839L13.4378 18.3661L12.4378 20.0981L12.9883 20.416L13.9883 18.6839ZM14.9999 21C14.9999 20.8885 15.0036 20.778 15.0107 20.6687L13.0149 20.5385C13.005 20.6912 12.9999 20.8451 12.9999 21H14.9999ZM15.0107 21.3314C15.0036 21.222 14.9999 21.1115 14.9999 21H12.9999C12.9999 21.155 13.005 21.3089 13.015 21.4616L15.0107 21.3314ZM13.4378 23.634L13.9883 23.3161L12.9883 21.5841L12.4378 21.9019L13.4378 23.634ZM13.0717 25C12.7956 24.5217 12.9595 23.9101 13.4378 23.634L12.4378 21.9019C11.0029 22.7304 10.5113 24.5651 11.3397 26L13.0717 25ZM14.4378 25.3661C13.9595 25.6422 13.3479 25.4783 13.0717 25L11.3397 26C12.1681 27.4349 14.0029 27.9265 15.4378 27.0981L14.4378 25.3661ZM14.9882 25.0483L14.4378 25.3661L15.4378 27.0981L15.9882 26.7803L14.9882 25.0483ZM17.7912 25.4872C17.5934 25.3896 17.4029 25.2793 17.2208 25.1572L16.1074 26.8187C16.3623 26.9895 16.629 27.144 16.9063 27.2808L17.7912 25.4872ZM19 28V27.3658H17V28H19ZM12.9883 20.416C12.9829 20.4128 12.9883 20.4126 12.9976 20.4318C13.0081 20.4538 13.018 20.4914 13.0149 20.5385L15.0107 20.6687C15.0586 19.9342 14.7397 19.1177 13.9883 18.6839L12.9883 20.416ZM16.1074 15.1813C16.0681 15.2076 16.0306 15.2179 16.0064 15.2197C15.9852 15.2213 15.9827 15.2166 15.9882 15.2197L14.9882 16.9518C15.7407 17.3862 16.6085 17.253 17.2208 16.8428L16.1074 15.1813ZM26.9849 20.5385C26.9819 20.4914 26.9918 20.4538 27.0023 20.4319C27.0116 20.4126 27.017 20.4128 27.0116 20.416L26.0116 18.6839C25.2602 19.1177 24.9413 19.9342 24.9892 20.6687L26.9849 20.5385ZM13.015 21.4616C13.018 21.5087 13.0081 21.5463 12.9976 21.5682C12.9883 21.5874 12.9829 21.5872 12.9883 21.5841L13.9883 23.3161C14.7397 22.8823 15.0586 22.0658 15.0107 21.3314L13.015 21.4616ZM23 27.3657C23 27.3721 22.9971 27.3675 23.0092 27.3497C23.023 27.3295 23.0509 27.3018 23.0937 27.2807L22.2087 25.4872C21.549 25.8127 21 26.497 21 27.3657H23ZM24.0117 15.2197C24.0172 15.2166 24.0147 15.2213 23.9935 15.2197C23.9693 15.2179 23.9317 15.2076 23.8925 15.1813L22.7791 16.8428C23.3913 17.253 24.2592 17.3863 25.0117 16.9518L24.0117 15.2197ZM23.0937 14.7193C23.0509 14.6982 23.023 14.6705 23.0092 14.6503C22.9971 14.6325 23 14.6279 23 14.6343H21C21 15.503 21.549 16.1873 22.2087 16.5128L23.0937 14.7193ZM23.8924 26.8187C23.9317 26.7924 23.9692 26.7821 23.9935 26.7803C24.0147 26.7787 24.0171 26.7835 24.0117 26.7803L25.0117 25.0483C24.2592 24.6138 23.3913 24.747 22.7791 25.1572L23.8924 26.8187ZM15.9882 26.7803C15.9827 26.7835 15.9852 26.7787 16.0064 26.7803C16.0307 26.7821 16.0682 26.7924 16.1074 26.8187L17.2208 25.1572C16.6086 24.747 15.7407 24.6138 14.9882 25.0483L15.9882 26.7803ZM17 14.6342C17 14.6279 17.0029 14.6325 16.9908 14.6502C16.9769 14.6705 16.949 14.6981 16.9063 14.7192L17.7912 16.5128C18.451 16.1873 19 15.503 19 14.6342H17ZM16.9063 27.2808C16.949 27.3019 16.9769 27.3295 16.9908 27.3498C17.0029 27.3675 17 27.3721 17 27.3658H19C19 26.497 18.451 25.8127 17.7912 25.4872L16.9063 27.2808ZM27.0116 21.5841C27.017 21.5872 27.0116 21.5874 27.0023 21.5682C26.9918 21.5463 26.9819 21.5087 26.9849 21.4616L24.9892 21.3314C24.9413 22.0658 25.2602 22.8823 26.0116 23.3161L27.0116 21.5841Z" fill="#6C86AD"/>
<circle cx="20" cy="21" r="2" stroke="#6C86AD" stroke-width="2" stroke-linecap="round"/>
<path fill-rule="evenodd" clip-rule="evenodd" d="M6.91856 14C6.91856 14.5523 7.36627 15 7.91856 15H9.02967C9.58196 15 10.0297 14.5523 10.0297 14V13.1084C10.0297 12.6845 10.3024 12.3159 10.6759 12.1157C10.7645 12.0682 10.8514 12.0179 10.9365 11.9649C11.2965 11.7409 11.7522 11.689 12.1193 11.9009L12.8925 12.3473C13.3708 12.6235 13.9824 12.4596 14.2585 11.9813L14.8141 11.0191C15.0902 10.5408 14.9263 9.92917 14.448 9.65303L13.6746 9.2065C13.3079 8.9948 13.1248 8.57492 13.1383 8.15174C13.1399 8.10138 13.1408 8.05082 13.1408 8.00007C13.1408 7.94939 13.14 7.8989 13.1383 7.8486C13.1249 7.42544 13.308 7.00559 13.6746 6.7939L14.448 6.34737C14.9263 6.07123 15.0902 5.45964 14.8141 4.98135L14.2585 4.0191C13.9824 3.54081 13.3708 3.37693 12.8925 3.65307L12.1195 4.09934C11.7524 4.31132 11.2966 4.25935 10.9367 4.03531C10.8516 3.98232 10.7646 3.932 10.6759 3.88445C10.3024 3.6842 10.0297 3.3156 10.0297 2.89178V2C10.0297 1.44772 9.58196 1 9.02967 1H7.91856C7.36628 1 6.91856 1.44772 6.91856 2V2.89176C6.91856 3.31558 6.64584 3.68419 6.27231 3.88444C6.18363 3.93198 6.09667 3.9823 6.01153 4.03529C5.6516 4.25932 5.19587 4.31129 4.82871 4.09931L4.05572 3.65303C3.57743 3.37688 2.96584 3.54076 2.6897 4.01905L2.13414 4.9813C1.858 5.45959 2.02187 6.07119 2.50017 6.34733L3.27356 6.79385C3.64022 7.00554 3.82334 7.4254 3.80984 7.84856C3.80823 7.89887 3.80743 7.94938 3.80743 8.00007C3.80743 8.05084 3.80824 8.10141 3.80984 8.15178C3.82336 8.57496 3.64024 8.99485 3.27357 9.20655L2.50017 9.65307C2.02188 9.92921 1.858 10.5408 2.13414 11.0191L2.6897 11.9813C2.96584 12.4596 3.57743 12.6235 4.05572 12.3474L4.82892 11.901C5.19607 11.689 5.65177 11.741 6.0117 11.965C6.09678 12.0179 6.18369 12.0682 6.27231 12.1157C6.64584 12.316 6.91856 12.6846 6.91856 13.1084V14Z" fill="#9240FB"/>
</svg>
