<svg width="32" height="33" viewBox="0 0 32 33" fill="none" xmlns="http://www.w3.org/2000/svg">
<path d="M6.5 19.9999L8.62132 17.8786C9.18393 17.316 9.94699 16.9999 10.7426 16.9999H21.25C22.2165 16.9999 23 17.7834 23 18.7499V18.7499C23 19.7164 22.2165 20.4999 21.25 20.4999H16M12 25.4999H21.3219C22.0792 25.4999 22.8084 25.2135 23.3633 24.6983L28.9379 19.5219C29.3067 19.1794 29.5834 18.7496 29.7426 18.2722L30.4136 16.259C30.773 15.1809 30.3718 13.7172 29.2963 14.0839C28.6511 14.3039 27.9713 14.9311 27.3839 16.1107C27.1034 16.6739 26.7201 17.1904 26.1797 17.5125C24.9757 18.23 23.5 18.9999 23.5 18.9999" stroke="white" stroke-width="2" stroke-linecap="round" stroke-linejoin="round"/>
<rect width="12" height="5" rx="2" transform="matrix(-0.707107 -0.707107 -0.707107 0.707107 13.0208 26.4854)" stroke="white" stroke-width="2"/>
<circle cx="17" cy="9" r="5" fill="#2F8AF5"/>
</svg>
