<svg width="28" height="28" viewBox="0 0 28 28" fill="none" xmlns="http://www.w3.org/2000/svg">
<path d="M14.9734 27C14.9918 26.7867 15 26.5733 15 26.3565C15 23.9722 13.9316 21.796 12.1726 20.1439C10.1236 18.2152 7.13279 17 3.80082 17C2.83452 17 1.89479 17.1024 1 17.2953" stroke="white" stroke-width="2" stroke-linecap="round" stroke-linejoin="round"/>
<path d="M17 20C18.8991 18.1443 21.4954 17 24.3594 17C25.2704 17 26.1564 17.116 27 17.3344" stroke="white" stroke-width="2" stroke-linecap="round" stroke-linejoin="round"/>
<path fill-rule="evenodd" clip-rule="evenodd" d="M17.5603 6.31778C17.5603 8.61111 16.4575 10.7215 14.6051 12.4018C14.2616 12.7134 13.7409 12.7135 13.3972 12.4021C11.5429 10.7217 10.4399 8.61096 10.4399 6.31778C10.4399 4.0246 11.5429 1.91383 13.3972 0.233496C13.7409 -0.0779537 14.2616 -0.0778156 14.6051 0.233812C16.4575 1.9141 17.5603 4.02474 17.5603 6.31778ZM10.6164 10.2457C12.1569 11.5393 13.1142 13.1365 13.4889 14.8076C13.6199 15.3922 13.1244 15.8982 12.5312 15.8149C10.4661 15.5249 8.48619 14.711 6.89285 13.373C5.35215 12.0791 4.39474 10.4816 4.02108 8.80957C3.89046 8.22513 4.38608 7.71955 4.97908 7.80302C7.04294 8.09353 9.02281 8.90768 10.6164 10.2457ZM14.5106 14.8087C14.3799 15.3933 14.8756 15.899 15.4687 15.8154C17.5328 15.5247 19.5129 14.7106 21.1061 13.3726C22.6467 12.0789 23.604 10.4818 23.9784 8.81064C24.1094 8.22621 23.6139 7.7203 23.0208 7.80355C20.9558 8.0934 18.9755 8.90757 17.3821 10.2457C15.8415 11.5394 14.8844 13.1367 14.5106 14.8087Z" fill="#B62FF5"/>
</svg>
