<svg width="32" height="32" viewBox="0 0 32 32" fill="none" xmlns="http://www.w3.org/2000/svg">
<path fill-rule="evenodd" clip-rule="evenodd" d="M2.47388 1.11907C2.08506 0.9097 1.60494 0.980167 1.29267 1.29243C0.980411 1.60469 0.909944 2.08481 1.11931 2.47364L4.27859 8.34087C2.83776 10.5419 1.99978 13.1741 1.99978 15.9995C1.99978 23.7315 8.2678 29.9995 15.9998 29.9995C19.1319 29.9995 22.0257 28.9699 24.3583 27.2315L28.4631 29.8437C28.8586 30.0953 29.3757 30.0386 29.7071 29.7071C30.0386 29.3757 30.0953 28.8586 29.8437 28.4631L27.2315 24.3584C28.9701 22.0257 29.9998 19.1318 29.9998 15.9995C29.9998 8.26755 23.7318 1.99954 15.9998 1.99954C13.1744 1.99954 10.5421 2.83751 8.34111 4.27835L2.47388 1.11907ZM6.0735 7.45575L4.46059 4.46034L7.93015 6.32857C8.26731 6.51012 8.67855 6.48318 8.98915 6.2592C10.9612 4.83713 13.3812 3.99954 15.9998 3.99954C22.6272 3.99954 27.9998 9.37212 27.9998 15.9995C27.9998 18.8403 27.0139 21.4482 25.3647 23.5035C25.1463 23.0964 25.0745 22.6236 25.166 22.166L25.3242 21.3755C25.4358 20.8175 25.3044 20.2384 24.9629 19.7832L24.3996 19.0322C24.1399 18.686 23.9995 18.2649 23.9995 17.8321V10.9986C23.9995 10.4463 23.5518 9.99858 22.9995 9.9986L20.8202 9.99869C19.2624 9.99875 17.9995 11.2617 17.9995 12.8195C17.9995 14.1551 17.2449 15.3761 16.0503 15.9733L15.9995 15.9989L15.9488 16.0243C14.7542 16.6215 13.9995 17.8425 13.9995 19.1781C13.9995 20.736 12.7367 21.9989 11.1788 21.9989L8.99958 21.999C8.44728 21.999 7.99954 21.5513 7.99954 20.999V14.1655C7.99954 13.7328 7.85916 13.3117 7.59947 12.9654L7.03615 12.2145C6.6947 11.7592 6.56332 11.1801 6.67492 10.6221L6.99954 8.99905L6.0735 7.45575ZM21.9084 21.5886L21.1705 18.2683C21.1255 18.0658 20.84 18.0572 20.783 18.2567L20.2275 20.2008C20.0953 20.6635 20.3114 21.1548 20.7418 21.37L21.6237 21.8109C21.7743 21.8862 21.9449 21.753 21.9084 21.5886Z" fill="white"/>
<path d="M10.0912 10.4087L10.829 13.7291C10.874 13.9316 11.1596 13.9401 11.2165 13.7406L11.772 11.7965C11.9042 11.3338 11.6881 10.8426 11.2577 10.6274L10.3758 10.1865C10.2252 10.1111 10.0546 10.2443 10.0912 10.4087Z" fill="#2F8AF5"/>
</svg>
