<svg width="32" height="32" viewBox="0 0 32 32" fill="none" xmlns="http://www.w3.org/2000/svg">
<path fill-rule="evenodd" clip-rule="evenodd" d="M13.2082 27C12.1037 27 11.2082 26.1046 11.2082 25V25C11.2082 24.6329 10.9447 24.324 10.5944 24.2141C9.74248 23.9467 9.05139 23.4828 8.51963 22.8606C8.05842 22.3209 7.80896 21.7631 7.66429 21.3756C7.66268 21.3713 7.66107 21.367 7.65947 21.3627C7.58923 21.1732 7.47214 21.0035 7.30629 20.888C7.28987 20.8766 7.2726 20.8646 7.25443 20.8521C7.24999 20.8491 7.24376 20.8449 7.23588 20.8396C7.12991 20.7685 6.72815 20.4988 6.44473 20.117C6.25321 19.8591 5.99342 19.3963 6.00013 18.7701C6.007 18.1282 6.28925 17.6476 6.53741 17.3555C6.7033 17.1602 6.90518 16.9986 7.13205 16.8795V16.8795C7.38912 16.7446 7.52982 16.4411 7.43974 16.1651C7.1739 15.3504 7.05377 14.4978 7.05377 13.6449C7.05377 12.3732 7.3556 11.1453 7.96334 10.0506C8.07851 9.84318 8.12803 9.60534 8.10711 9.369C8.05364 8.76509 8.09128 8.21857 8.1619 7.76351C8.22376 7.36487 8.31216 7.02748 8.39261 6.76993C8.433 6.64062 8.47138 6.53146 8.50311 6.44566C8.52796 6.37846 8.56695 6.27854 8.55986 6.29709C8.83213 5.58415 9.48639 5.0883 10.2464 5.01891C11.5543 4.89948 12.7276 5.37046 13.4483 5.73927C13.5326 5.78242 13.6142 5.82599 13.6928 5.86949C13.908 5.9886 14.1564 6.03539 14.3996 5.99865C15.0765 5.89639 15.7875 5.84617 16.5282 5.84617C17.2823 5.84617 18.0023 5.89972 18.6863 6.0059C18.9281 6.04345 19.1755 5.99821 19.3905 5.88124C19.5023 5.82043 19.6199 5.75965 19.7427 5.70027C20.4546 5.35572 21.5552 4.95067 22.7789 5.06395C23.5459 5.13495 24.204 5.64015 24.4707 6.36279C24.4703 6.36155 24.5515 6.567 24.6273 6.81006C24.7059 7.06184 24.7929 7.39219 24.855 7.78307C24.9252 8.22596 24.965 8.75727 24.9193 9.3453C24.901 9.57995 24.9522 9.81536 25.0677 10.0204C25.6908 11.126 26 12.3695 26 13.6529C26 15.3815 25.5054 17.1078 24.3066 18.5187C23.7762 19.1429 23.1385 19.6697 22.404 20.0968C21.9957 20.3343 21.7691 20.7989 21.8031 21.27C21.8125 21.4007 21.8172 21.5318 21.8171 21.6631C21.8171 21.6635 21.8171 21.664 21.8171 21.6645L21.8171 25C21.8171 26.1046 20.9217 27 19.8171 27H13.2082ZM19.8171 21.6631C19.8173 21.4782 19.8024 21.2941 19.773 21.1126C19.7314 20.8557 19.6606 20.604 19.5616 20.3627V20.3627C19.3488 19.8442 19.5865 19.1184 20.118 18.9404C20.3915 18.8488 20.6493 18.7459 20.8917 18.6326C23.0599 17.619 24 15.7684 24 13.6529C24 12.5368 23.6894 11.4919 23.0777 10.6065C22.8807 10.3214 22.8087 9.96566 22.8697 9.62445C23.095 8.36554 22.7059 7.34735 22.608 7.09108V7.09108C22.5997 7.06932 22.5797 7.054 22.5565 7.05221C21.5175 6.97202 20.456 7.54014 19.8693 7.92312C19.6052 8.09555 19.2822 8.15988 18.974 8.09274C18.2369 7.93218 17.4221 7.84617 16.5282 7.84617C15.644 7.84617 14.8363 7.92764 14.1078 8.08355C13.7939 8.15073 13.4645 8.08311 13.1968 7.90596C12.617 7.52241 11.5244 6.92311 10.457 7.00816C10.4394 7.00957 10.4242 7.02106 10.4178 7.03749V7.03749C10.3231 7.28038 9.91247 8.33312 10.1601 9.6283C10.2258 9.97193 10.1565 10.332 9.95923 10.6209C9.35877 11.5006 9.05377 12.5346 9.05377 13.6449C9.05377 14.8186 9.34228 15.9108 9.96959 16.8244C10.4204 17.4809 11.0462 18.0451 11.8656 18.4809C11.9556 18.5287 12.0479 18.575 12.1426 18.6197C12.359 18.7219 12.5877 18.8158 12.8291 18.9007C13.3932 19.0992 13.6463 19.8812 13.4335 20.4402V20.4402C13.4147 20.4897 13.397 20.5397 13.3804 20.5903C13.3264 20.7551 13.1988 20.8906 13.0284 20.9227V20.9227C12.9354 20.9403 12.8359 20.9559 12.7319 20.9679C12.0359 21.048 11.1375 20.9631 10.6169 20.1765C10.5774 20.117 10.5381 20.0591 10.4991 20.0028C10.3952 19.8528 10.2928 19.714 10.1918 19.5864C10.1886 19.5824 10.1855 19.5784 10.1823 19.5744C10.0986 19.4692 10.0159 19.3717 9.93406 19.2819C9.52257 18.8308 9.13285 18.5757 8.7535 18.5213C8.58029 18.4964 8.40923 18.5134 8.23926 18.5728C8.1183 18.615 7.9774 18.7026 8.00365 18.828C8.02672 18.9382 8.15687 19.0429 8.33218 19.1657C8.36639 19.1896 8.40233 19.2143 8.43953 19.2398C8.73127 19.44 9.1005 19.6933 9.32505 20.0842C9.35946 20.1421 9.39188 20.2422 9.43315 20.3696C9.47661 20.5038 9.52988 20.6683 9.60563 20.8457C9.60585 20.8462 9.60607 20.8467 9.60629 20.8473C9.86861 21.4607 10.4 22.2274 11.7235 22.4275C11.8376 22.4447 11.9576 22.4577 12.0838 22.4661C12.6818 22.5057 13.2082 22.9548 13.2082 23.5541V24C13.2082 24.5523 13.6559 25 14.2082 25H18.8171C19.3694 25 19.8171 24.5523 19.8171 24V21.6631ZM7.60602 21.1064C7.60608 21.1065 7.60596 21.1064 7.60602 21.1064ZM7.49739 20.8859C7.49246 20.8733 7.48991 20.8661 7.48987 20.8656C7.48983 20.8651 7.4923 20.8713 7.49739 20.8859Z" fill="white"/>
</svg>
