<svg width="32" height="32" viewBox="0 0 32 32" fill="none" xmlns="http://www.w3.org/2000/svg">
<path fill-rule="evenodd" clip-rule="evenodd" d="M10.3609 7.30476C10.3456 6.78371 10.7729 6.33325 11.3333 6.33325H20.6666C21.2271 6.33325 21.6544 6.78371 21.639 7.30476C21.5345 10.8543 21.1178 13.8568 20.188 15.9425C19.7288 16.9724 19.1662 17.7285 18.5015 18.2267C17.8497 18.7153 17.042 18.9999 16 18.9999C14.9579 18.9999 14.1503 18.7153 13.4984 18.2267C12.8337 17.7285 12.2711 16.9724 11.812 15.9425C10.8822 13.8568 10.4655 10.8543 10.3609 7.30476ZM11.3333 4.33325C9.68458 4.33325 8.31209 5.67651 8.36178 7.36364C8.46793 10.9677 8.88912 14.298 9.98527 16.7568C10.5391 17.9991 11.2865 19.0682 12.2989 19.827C13.0783 20.4113 13.98 20.7851 15 20.9308V25.6666H14.9934H14.9857H14.978H14.9703H14.9625H14.9548H14.9471H14.9393H14.9316H14.9239H14.9161H14.9084H14.9006H14.8929H14.8851H14.8774H14.8696H14.8619H14.8541H14.8464H14.8386H14.8309H14.8231H14.8153H14.8076H14.7998H14.7921H14.7843H14.7765H14.7687H14.761H14.7532H14.7454H14.7376H14.7298H14.7221H14.7143H14.7065H14.6987H14.6909H14.6831H14.6753H14.6675H14.6597H14.6519H14.6441H14.6363H14.6285H14.6207H14.6129H14.6051H14.5973H14.5895H14.5817H14.5739H14.5661H14.5582H14.5504H14.5426H14.5348H14.527H14.5191H14.5113H14.5035H14.4957H14.4878H14.48H14.4722H14.4643H14.4565H14.4487H14.4408H14.433H14.4251H14.4173H14.4095H14.4016H14.3938H14.3859H14.3781H14.3702H14.3624H14.3545H14.3467H14.3388H14.3309H14.3231H14.3152H14.3074H14.2995H14.2916H14.2838H14.2759H14.2681H14.2602H14.2523H14.2444H14.2366H14.2287H14.2208H14.213H14.2051H14.1972H14.1893H14.1814H14.1736H14.1657H14.1578H14.1499H14.142H14.1341H14.1263H14.1184H14.1105H14.1026H14.0947H14.0868H14.0789H14.071H14.0631H14.0552H14.0473H14.0394H14.0315H14.0236H14.0157H14.0078H13.9999H13.992H13.9841H13.9762H13.9683H13.9604H13.9525H13.9446H13.9367H13.9288H13.9208H13.9129H13.905H13.8971H13.8892H13.8813H13.8734H13.8654H13.8575H13.8496H13.8417H13.8338H13.8258H13.8179H13.81H13.8021H13.7941H13.7862H13.7783H13.7704H13.7624H13.7545H13.7466H13.7387H13.7307H13.7228H13.7149H13.7069H13.699H13.6911H13.6831H13.6752H13.6673H13.6593H13.6514H13.6434H13.6355H13.6276H13.6196H13.6117H13.6038H13.5958H13.5879H13.5799H13.572H13.564H13.5561H13.5482H13.5402H13.5323H13.5243H13.5164H13.5084H13.5005H13.4925H13.4846H13.4767H13.4687H13.4608H13.4528H13.4449H13.4369H13.429H13.421H13.4131H13.4051H13.3972H13.3892H13.3813H13.3733H13.3654H13.3574H13.3494H13.3415H13.3335H13.3256H13.3176H13.3097H13.3017H13.2938H13.2858H13.2779H13.2699H13.2619H13.254H13.246H13.2381H13.2301H13.2222H13.2142H13.2063H13.1983H13.1903H13.1824H13.1744H13.1665H13.1585H13.1506H13.1426H13.1346H13.1267H13.1187H13.1108H13.1028H13.0949H13.0869H13.0789H13.071H13.063H13.0551H13.0471H13.0391H13.0312H13.0232H13.0153H13.0073H12.9994H12.9914H12.9834H12.9755H12.9675H12.9596H12.9516H12.9437H12.9357H12.9277H12.9198H12.9118H12.9039H12.8959H12.888H12.88H12.8721H12.8641H12.8561H12.8482H12.8402H12.8323H12.8243H12.8164H12.8084H12.8005H12.7925H12.7846H12.7766H12.7687H12.7607H12.7528H12.7448H12.7369H12.7289H12.721H12.713H12.7051H12.6971H12.6892H12.6812H12.6733H12.6653H12.6574H12.6494H12.6415H12.6335H12.6256H12.6176H12.6097H12.6017H12.5938H12.5859H12.5779H12.57H12.562H12.5541H12.5462H12.5382H12.5303H12.5223H12.5144H12.5065H12.4985H12.4906H12.4826H12.4747H12.4668H12.4588H12.4509H12.443H12.435H12.4271H12.4192H12.4113H12.4033H12.3954H12.3875H12.3795H12.3716H12.3637H12.3558H12.3478H12.3399H12.332H12.3241H12.3161H12.3082H12.3003H12.2924H12.2845H12.2765H12.2686H12.2607H12.2528H12.2449H12.237H12.2291H12.2211H12.2132H12.2053H12.1974H12.1895H12.1816H12.1737H12.1658H12.1579H12.15H12.1421H12.1342H12.1263H12.1184H12.1105H12.1026H12.0947H12.0868H12.0789H12.071H12.0631H12.0552H12.0473H12.0394H12.0315H12.0236H12.0157H12.0079H12C11.4477 25.6666 11 26.1143 11 26.6666C11 27.2189 11.4477 27.6666 12 27.6666H12.0079H12.0157H12.0236H12.0315H12.0394H12.0473H12.0552H12.0631H12.071H12.0789H12.0868H12.0947H12.1026H12.1105H12.1184H12.1263H12.1342H12.1421H12.15H12.1579H12.1658H12.1737H12.1816H12.1895H12.1974H12.2053H12.2132H12.2211H12.2291H12.237H12.2449H12.2528H12.2607H12.2686H12.2765H12.2845H12.2924H12.3003H12.3082H12.3161H12.3241H12.332H12.3399H12.3478H12.3558H12.3637H12.3716H12.3795H12.3875H12.3954H12.4033H12.4113H12.4192H12.4271H12.435H12.443H12.4509H12.4588H12.4668H12.4747H12.4826H12.4906H12.4985H12.5065H12.5144H12.5223H12.5303H12.5382H12.5462H12.5541H12.562H12.57H12.5779H12.5859H12.5938H12.6017H12.6097H12.6176H12.6256H12.6335H12.6415H12.6494H12.6574H12.6653H12.6733H12.6812H12.6892H12.6971H12.7051H12.713H12.721H12.7289H12.7369H12.7448H12.7528H12.7607H12.7687H12.7766H12.7846H12.7925H12.8005H12.8084H12.8164H12.8243H12.8323H12.8402H12.8482H12.8561H12.8641H12.8721H12.88H12.888H12.8959H12.9039H12.9118H12.9198H12.9277H12.9357H12.9437H12.9516H12.9596H12.9675H12.9755H12.9834H12.9914H12.9994H13.0073H13.0153H13.0232H13.0312H13.0391H13.0471H13.0551H13.063H13.071H13.0789H13.0869H13.0949H13.1028H13.1108H13.1187H13.1267H13.1346H13.1426H13.1506H13.1585H13.1665H13.1744H13.1824H13.1903H13.1983H13.2063H13.2142H13.2222H13.2301H13.2381H13.246H13.254H13.2619H13.2699H13.2779H13.2858H13.2938H13.3017H13.3097H13.3176H13.3256H13.3335H13.3415H13.3494H13.3574H13.3654H13.3733H13.3813H13.3892H13.3972H13.4051H13.4131H13.421H13.429H13.4369H13.4449H13.4528H13.4608H13.4687H13.4767H13.4846H13.4925H13.5005H13.5084H13.5164H13.5243H13.5323H13.5402H13.5482H13.5561H13.564H13.572H13.5799H13.5879H13.5958H13.6038H13.6117H13.6196H13.6276H13.6355H13.6434H13.6514H13.6593H13.6673H13.6752H13.6831H13.6911H13.699H13.7069H13.7149H13.7228H13.7307H13.7387H13.7466H13.7545H13.7624H13.7704H13.7783H13.7862H13.7941H13.8021H13.81H13.8179H13.8258H13.8338H13.8417H13.8496H13.8575H13.8654H13.8734H13.8813H13.8892H13.8971H13.905H13.9129H13.9208H13.9288H13.9367H13.9446H13.9525H13.9604H13.9683H13.9762H13.9841H13.992H13.9999H14.0078H14.0157H14.0236H14.0315H14.0394H14.0473H14.0552H14.0631H14.071H14.0789H14.0868H14.0947H14.1026H14.1105H14.1184H14.1263H14.1341H14.142H14.1499H14.1578H14.1657H14.1736H14.1814H14.1893H14.1972H14.2051H14.213H14.2208H14.2287H14.2366H14.2444H14.2523H14.2602H14.2681H14.2759H14.2838H14.2916H14.2995H14.3074H14.3152H14.3231H14.3309H14.3388H14.3467H14.3545H14.3624H14.3702H14.3781H14.3859H14.3938H14.4016H14.4095H14.4173H14.4251H14.433H14.4408H14.4487H14.4565H14.4643H14.4722H14.48H14.4878H14.4957H14.5035H14.5113H14.5191H14.527H14.5348H14.5426H14.5504H14.5582H14.5661H14.5739H14.5817H14.5895H14.5973H14.6051H14.6129H14.6207H14.6285H14.6363H14.6441H14.6519H14.6597H14.6675H14.6753H14.6831H14.6909H14.6987H14.7065H14.7143H14.7221H14.7298H14.7376H14.7454H14.7532H14.761H14.7687H14.7765H14.7843H14.7921H14.7998H14.8076H14.8153H14.8231H14.8309H14.8386H14.8464H14.8541H14.8619H14.8696H14.8774H14.8851H14.8929H14.9006H14.9084H14.9161H14.9239H14.9316H14.9393H14.9471H14.9548H14.9625H14.9703H14.978H14.9857H14.9934H15.0011H15.0089H15.0166H15.0243H15.032H15.0397H15.0474H15.0551H15.0628H15.0705H15.0782H15.0859H15.0936H15.1013H15.109H15.1167H15.1244H15.1321H15.1398H15.1474H15.1551H15.1628H15.1705H15.1781H15.1858H15.1935H15.2012H15.2088H15.2165H15.2241H15.2318H15.2395H15.2471H15.2548H15.2624H15.2701H15.2777H15.2853H15.293H15.3006H15.3083H15.3159H15.3235H15.3311H15.3388H15.3464H15.354H15.3616H15.3693H15.3769H15.3845H15.3921H15.3997H15.4073H15.4149H15.4225H15.4301H15.4377H15.4453H15.4529H15.4605H15.4681H15.4756H15.4832H15.4908H15.4984H15.506H15.5135H15.5211H15.5287H15.5362H15.5438H15.5513H15.5589H15.5665H15.574H15.5816H15.5891H15.5966H15.6042H15.6117H15.6193H15.6268H15.6343H15.6419H15.6494H15.6569H15.6644H15.6719H15.6795H15.687H15.6945H15.702H15.7095H15.717H15.7245H15.732H15.7395H15.747H15.7545H15.7619H15.7694H15.7769H15.7844H15.7919H15.7993H15.8068H15.8143H15.8217H15.8292H15.8366H15.8441H15.8515H15.859H15.8664H15.8739H15.8813H15.8888H15.8962H15.9036H15.9111H15.9185H15.9259H15.9333H15.9407H15.9482H15.9556H15.963H15.9704H15.9778H15.9852H15.9926H16H16.0102H16.0203H16.0305H16.0407H16.0508H16.061H16.0711H16.0813H16.0914H16.1015H16.1117H16.1218H16.1319H16.142H16.1521H16.1622H16.1723H16.1824H16.1924H16.2025H16.2126H16.2226H16.2327H16.2427H16.2528H16.2628H16.2728H16.2829H16.2929H16.3029H16.3129H16.3229H16.3329H16.3428H16.3528H16.3628H16.3728H16.3827H16.3927H16.4026H16.4125H16.4225H16.4324H16.4423H16.4522H16.4621H16.472H16.4819H16.4918H16.5017H16.5116H16.5214H16.5313H16.5411H16.551H16.5608H16.5706H16.5805H16.5903H16.6001H16.6099H16.6197H16.6295H16.6393H16.649H16.6588H16.6686H16.6783H16.6881H16.6978H16.7075H16.7172H16.727H16.7367H16.7464H16.7561H16.7658H16.7754H16.7851H16.7948H16.8044H16.8141H16.8237H16.8334H16.843H16.8526H16.8622H16.8718H16.8814H16.891H16.9006H16.9102H16.9198H16.9293H16.9389H16.9484H16.958H16.9675H16.977H16.9865H16.996H17.0055H17.015H17.0245H17.034H17.0434H17.0529H17.0624H17.0718H17.0812H17.0907H17.1001H17.1095H17.1189H17.1283H17.1377H17.1471H17.1564H17.1658H17.1751H17.1845H17.1938H17.2032H17.2125H17.2218H17.2311H17.2404H17.2497H17.259H17.2682H17.2775H17.2868H17.296H17.3052H17.3145H17.3237H17.3329H17.3421H17.3513H17.3605H17.3697H17.3788H17.388H17.3971H17.4063H17.4154H17.4246H17.4337H17.4428H17.4519H17.461H17.47H17.4791H17.4882H17.4972H17.5063H17.5153H17.5243H17.5334H17.5424H17.5514H17.5604H17.5694H17.5783H17.5873H17.5962H17.6052H17.6141H17.6231H17.632H17.6409H17.6498H17.6587H17.6676H17.6764H17.6853H17.6941H17.703H17.7118H17.7206H17.7295H17.7383H17.7471H17.7558H17.7646H17.7734H17.7822H17.7909H17.7996H17.8084H17.8171H17.8258H17.8345H17.8432H17.8519H17.8605H17.8692H17.8779H17.8865H17.8951H17.9037H17.9124H17.921H17.9296H17.9381H17.9467H17.9553H17.9638H17.9724H17.9809H17.9894H17.9979H18.0064H18.0149H18.0234H18.0319H18.0403H18.0488H18.0572H18.0657H18.0741H18.0825H18.0909H18.0993H18.1077H18.116H18.1244H18.1327H18.1411H18.1494H18.1577H18.166H18.1743H18.1826H18.1909H18.1991H18.2074H18.2156H18.2238H18.2321H18.2403H18.2485H18.2567H18.2648H18.273H18.2812H18.2893H18.2974H18.3056H18.3137H18.3218H18.3299H18.3379H18.346H18.3541H18.3621H18.3702H18.3782H18.3862H18.3942H18.4022H18.4102H18.4181H18.4261H18.434H18.442H18.4499H18.4578H18.4657H18.4736H18.4815H18.4893H18.4972H18.505H18.5129H18.5207H18.5285H18.5363H18.5441H18.5519H18.5596H18.5674H18.5751H18.5828H18.5906H18.5983H18.606H18.6136H18.6213H18.629H18.6366H18.6443H18.6519H18.6595H18.6671H18.6747H18.6822H18.6898H18.6974H18.7049H18.7124H18.7199H18.7275H18.7349H18.7424H18.7499H18.7573H18.7648H18.7722H18.7796H18.7871H18.7944H18.8018H18.8092H18.8166H18.8239H18.8312H18.8386H18.8459H18.8532H18.8604H18.8677H18.875H18.8822H18.8895H18.8967H18.9039H18.9111H18.9183H18.9254H18.9326H18.9398H18.9469H18.954H18.9611H18.9682H18.9753H18.9824H18.9894H18.9965H19.0035H19.0105H19.0175H19.0245H19.0315H19.0385H19.0454H19.0524H19.0593H19.0662H19.0731H19.08H19.0869H19.0937H19.1006H19.1074H19.1143H19.1211H19.1279H19.1346H19.1414H19.1482H19.1549H19.1617H19.1684H19.1751H19.1818H19.1884H19.1951H19.2018H19.2084H19.215H19.2216H19.2282H19.2348H19.2414H19.248H19.2545H19.261H19.2675H19.274H19.2805H19.287H19.2935H19.2999H19.3064H19.3128H19.3192H19.3256H19.332H19.3383H19.3447H19.351H19.3573H19.3636H19.3699H19.3762H19.3825H19.3887H19.395H19.4012H19.4074H19.4136H19.4198H19.426H19.4321H19.4383H19.4444H19.4505H19.4566H19.4627H19.4688H19.4748H19.4808H19.4869H19.4929H19.4989H19.5049H19.5108H19.5168H19.5227H19.5287H19.5346H19.5405H19.5463H19.5522H19.5581H19.5639H19.5697H19.5755H19.5813H19.5871H19.5929H19.5986H19.6044H19.6101H19.6158H19.6215H19.6272H19.6328H19.6385H19.6441H19.6497H19.6553H19.6609H19.6665H19.672H19.6776H19.6831H19.6886H19.6941H19.6996H19.705H19.7105H19.7159H19.7213H19.7268H19.7321H19.7375H19.7429H19.7482H19.7536H19.7589H19.7642H19.7694H19.7747H19.78H19.7852H19.7904H19.7956H19.8008H19.806H19.8111H19.8163H19.8214H19.8265H19.8316H19.8367H19.8418H19.8468H19.8519H19.8569H19.8619H19.8669H19.8718H19.8768H19.8817H19.8866H19.8916H19.8964H19.9013H19.9062H19.911H19.9158H19.9207H19.9255H19.9302H19.935H19.9397H19.9445H19.9492H19.9539H19.9586H19.9632H19.9679H19.9725H19.9771H19.9817H19.9863H19.9909H19.9954H20C20.5523 27.6666 21 27.2189 21 26.6666C21 26.1143 20.5523 25.6666 20 25.6666H19.9954H19.9909H19.9863H19.9817H19.9771H19.9725H19.9679H19.9632H19.9586H19.9539H19.9492H19.9445H19.9397H19.935H19.9302H19.9255H19.9207H19.9158H19.911H19.9062H19.9013H19.8964H19.8916H19.8866H19.8817H19.8768H19.8718H19.8669H19.8619H19.8569H19.8519H19.8468H19.8418H19.8367H19.8316H19.8265H19.8214H19.8163H19.8111H19.806H19.8008H19.7956H19.7904H19.7852H19.78H19.7747H19.7694H19.7642H19.7589H19.7536H19.7482H19.7429H19.7375H19.7321H19.7268H19.7213H19.7159H19.7105H19.705H19.6996H19.6941H19.6886H19.6831H19.6776H19.672H19.6665H19.6609H19.6553H19.6497H19.6441H19.6385H19.6328H19.6272H19.6215H19.6158H19.6101H19.6044H19.5986H19.5929H19.5871H19.5813H19.5755H19.5697H19.5639H19.5581H19.5522H19.5463H19.5405H19.5346H19.5287H19.5227H19.5168H19.5108H19.5049H19.4989H19.4929H19.4869H19.4808H19.4748H19.4688H19.4627H19.4566H19.4505H19.4444H19.4383H19.4321H19.426H19.4198H19.4136H19.4074H19.4012H19.395H19.3887H19.3825H19.3762H19.3699H19.3636H19.3573H19.351H19.3447H19.3383H19.332H19.3256H19.3192H19.3128H19.3064H19.2999H19.2935H19.287H19.2805H19.274H19.2675H19.261H19.2545H19.248H19.2414H19.2348H19.2282H19.2216H19.215H19.2084H19.2018H19.1951H19.1884H19.1818H19.1751H19.1684H19.1617H19.1549H19.1482H19.1414H19.1346H19.1279H19.1211H19.1143H19.1074H19.1006H19.0937H19.0869H19.08H19.0731H19.0662H19.0593H19.0524H19.0454H19.0385H19.0315H19.0245H19.0175H19.0105H19.0035H18.9965H18.9894H18.9824H18.9753H18.9682H18.9611H18.954H18.9469H18.9398H18.9326H18.9254H18.9183H18.9111H18.9039H18.8967H18.8895H18.8822H18.875H18.8677H18.8604H18.8532H18.8459H18.8386H18.8312H18.8239H18.8166H18.8092H18.8018H18.7944H18.7871H18.7796H18.7722H18.7648H18.7573H18.7499H18.7424H18.7349H18.7275H18.7199H18.7124H18.7049H18.6974H18.6898H18.6822H18.6747H18.6671H18.6595H18.6519H18.6443H18.6366H18.629H18.6213H18.6136H18.606H18.5983H18.5906H18.5828H18.5751H18.5674H18.5596H18.5519H18.5441H18.5363H18.5285H18.5207H18.5129H18.505H18.4972H18.4893H18.4815H18.4736H18.4657H18.4578H18.4499H18.442H18.434H18.4261H18.4181H18.4102H18.4022H18.3942H18.3862H18.3782H18.3702H18.3621H18.3541H18.346H18.3379H18.3299H18.3218H18.3137H18.3056H18.2974H18.2893H18.2812H18.273H18.2648H18.2567H18.2485H18.2403H18.2321H18.2238H18.2156H18.2074H18.1991H18.1909H18.1826H18.1743H18.166H18.1577H18.1494H18.1411H18.1327H18.1244H18.116H18.1077H18.0993H18.0909H18.0825H18.0741H18.0657H18.0572H18.0488H18.0403H18.0319H18.0234H18.0149H18.0064H17.9979H17.9894H17.9809H17.9724H17.9638H17.9553H17.9467H17.9381H17.9296H17.921H17.9124H17.9037H17.8951H17.8865H17.8779H17.8692H17.8605H17.8519H17.8432H17.8345H17.8258H17.8171H17.8084H17.7996H17.7909H17.7822H17.7734H17.7646H17.7558H17.7471H17.7383H17.7295H17.7206H17.7118H17.703H17.6941H17.6853H17.6764H17.6676H17.6587H17.6498H17.6409H17.632H17.6231H17.6141H17.6052H17.5962H17.5873H17.5783H17.5694H17.5604H17.5514H17.5424H17.5334H17.5243H17.5153H17.5063H17.4972H17.4882H17.4791H17.47H17.461H17.4519H17.4428H17.4337H17.4246H17.4154H17.4063H17.3971H17.388H17.3788H17.3697H17.3605H17.3513H17.3421H17.3329H17.3237H17.3145H17.3052H17.296H17.2868H17.2775H17.2682H17.259H17.2497H17.2404H17.2311H17.2218H17.2125H17.2032H17.1938H17.1845H17.1751H17.1658H17.1564H17.1471H17.1377H17.1283H17.1189H17.1095H17.1001H17.0907H17.0812H17.0718H17.0624H17.0529H17.0434H17.034H17.0245H17.015H17.0055H17V20.9308C18.02 20.7851 18.9216 20.4113 19.7011 19.827C20.7135 19.0682 21.4608 17.9991 22.0147 16.7568C23.1108 14.298 23.532 10.9677 23.6382 7.36364C23.6878 5.67651 22.3154 4.33325 20.6666 4.33325H11.3333Z" fill="white"/>
<path d="M9 8.00004C9 8.00004 4 6 4 9.50005C4 15.6766 10 16 10 16" stroke="white" stroke-width="2" stroke-linecap="round"/>
<path d="M23 8.00004C23 8.00004 28 6 28 9.50005C28 15.6766 22 16 22 16" stroke="white" stroke-width="2" stroke-linecap="round"/>
</svg>
