<svg width="32" height="33" viewBox="0 0 32 33" fill="none" xmlns="http://www.w3.org/2000/svg">
<g clip-path="url(#clip0_20287_259710)">
<path d="M18.9459 6.40563L19.5717 5.62564V5.62564L18.9459 6.40563ZM15.3858 6.79616L14.6058 6.17037L15.3858 6.79616ZM25.5094 11.6715L26.1395 10.895L26.1352 10.8915L25.5094 11.6715ZM25.5318 11.6897L24.9017 12.4662L24.906 12.4697L25.5318 11.6897ZM28.0064 13.675L28.6322 12.895V12.895L28.0064 13.675ZM28.7692 20.6292L29.5492 21.255L28.7692 20.6292ZM23.9999 22.3968L24.1831 21.4137C23.8909 21.3593 23.5895 21.4377 23.3609 21.6276C23.1322 21.8176 22.9999 22.0995 22.9999 22.3968H23.9999ZM4.45742 20.5086L5.39997 20.8427C5.50483 20.5468 5.46469 20.2189 5.29159 19.9571C5.11848 19.6953 4.83249 19.5299 4.51922 19.5105L4.45742 20.5086ZM7.88706 16.3185L6.921 16.5768C7.0021 16.8802 7.22099 17.1278 7.5121 17.2455C7.8032 17.3633 8.13271 17.3375 8.40191 17.1758L7.88706 16.3185ZM17.1678 15.1817V16.1817C17.7118 16.1817 18.1561 15.7467 18.1675 15.2028L17.1678 15.1817ZM18.1825 12.2866L18.9769 12.894C19.3068 12.4625 19.2319 11.8466 18.8082 11.5066L18.1825 12.2866ZM15.7763 10.3562L16.4021 9.57623L15.7763 10.3562ZM19.5717 5.62564C18.05 4.40478 15.8267 4.64867 14.6058 6.17037L16.1658 7.42194C16.6954 6.7618 17.66 6.65599 18.3201 7.18563L19.5717 5.62564ZM26.1352 10.8915L19.5717 5.62564L18.3201 7.18563L24.8836 12.4515L26.1352 10.8915ZM26.162 10.9132L26.1395 10.895L24.8792 12.448L24.9017 12.4662L26.162 10.9132ZM28.6322 12.895L26.1576 10.9097L24.906 12.4697L27.3806 14.455L28.6322 12.895ZM29.5492 21.255C31.6045 18.6932 31.194 14.9503 28.6322 12.895L27.3806 14.455C29.0808 15.8191 29.3533 18.3032 27.9892 20.0034L29.5492 21.255ZM23.8167 23.3799C25.8997 23.7681 28.1277 23.0268 29.5492 21.255L27.9892 20.0034C27.0472 21.1776 25.5703 21.6723 24.1831 21.4137L23.8167 23.3799ZM24.9999 23.1817V22.3968H22.9999V23.1817H24.9999ZM19.9999 28.1817C22.7613 28.1817 24.9999 25.9431 24.9999 23.1817H22.9999C22.9999 24.8386 21.6568 26.1817 19.9999 26.1817V28.1817ZM7.99992 28.1817H19.9999V26.1817H7.99992V28.1817ZM2.99992 23.1817C2.99992 25.9431 5.2385 28.1817 7.99992 28.1817V26.1817C6.34306 26.1817 4.99992 24.8386 4.99992 23.1817H2.99992ZM3.51487 20.1745C3.18112 21.1162 2.99992 22.1289 2.99992 23.1817H4.99992C4.99992 22.3597 5.1412 21.5728 5.39997 20.8427L3.51487 20.1745ZM4.51922 19.5105C3.29969 19.435 2.33325 18.4208 2.33325 17.1817H0.333252C0.333252 19.484 2.12813 21.3663 4.39562 21.5067L4.51922 19.5105ZM2.33325 17.1817C2.33325 15.8931 3.37792 14.8484 4.66659 14.8484V12.8484C2.27335 12.8484 0.333252 14.7885 0.333252 17.1817H2.33325ZM4.66659 14.8484C5.74488 14.8484 6.65468 15.5807 6.921 16.5768L8.85313 16.0602C8.3588 14.2113 6.67313 12.8484 4.66659 12.8484V14.8484ZM11.9999 14.1817C10.3096 14.1817 8.7252 14.6487 7.37222 15.4612L8.40191 17.1758C9.45259 16.5448 10.6823 16.1817 11.9999 16.1817V14.1817ZM17.1678 14.1817H11.9999V16.1817H17.1678V14.1817ZM17.388 11.6793C16.594 12.7178 16.1937 13.9408 16.168 15.1607L18.1675 15.2028C18.1846 14.3929 18.4495 13.5838 18.9769 12.894L17.388 11.6793ZM15.1506 11.1362L17.5567 13.0666L18.8082 11.5066L16.4021 9.57623L15.1506 11.1362ZM14.6058 6.17037C13.385 7.69208 13.6289 9.91536 15.1506 11.1362L16.4021 9.57623C15.742 9.0466 15.6362 8.08209 16.1658 7.42194L14.6058 6.17037Z" fill="white"/>
<path d="M10.6667 21.8484H13.0001C14.6569 21.8484 16.0001 23.1915 16.0001 24.8484V27.1817" stroke="white" stroke-width="2" stroke-linecap="round"/>
<circle cx="23" cy="16" r="2" fill="#2F8AF5"/>
</g>
<defs>
<clipPath id="clip0_20287_259710">
<rect width="32" height="32" fill="white" transform="translate(0 0.515137)"/>
</clipPath>
</defs>
</svg>
