<svg width="32" height="33" viewBox="0 0 32 33" fill="none" xmlns="http://www.w3.org/2000/svg">
<path d="M11.5 27.5C11.3333 26.5 11.5 24.3 13.5 23.5C16 22.5 16 22 16.5 20M19 19C18.5 19.6667 16.9 20.6 14.5 19C12.5 19.4 10.6667 19.8333 10 20L8.5 17L15 12.5H20C21.3333 14 24 18.6 24 25" stroke="#9240FB" stroke-width="2" stroke-linecap="round" stroke-linejoin="round"/>
<path d="M14 13.5L12 7L16 12.2L14 13.5Z" fill="#9240FB"/>
<path fill-rule="evenodd" clip-rule="evenodd" d="M28 16.5151C28 23.1426 22.6274 28.5151 16 28.5151C9.37258 28.5151 4 23.1426 4 16.5151C4 9.8877 9.37258 4.51514 16 4.51514C22.6274 4.51514 28 9.8877 28 16.5151Z" stroke="white" stroke-width="2" stroke-linecap="round" stroke-linejoin="round"/>
</svg>
